<svg width="11" height="21" viewBox="0 0 11 21" fill="none" xmlns="http://www.w3.org/2000/svg">
<path d="M10.8135 20.8237C10.7035 20.9357 10.5539 20.9991 10.3976 21C10.2409 21.0014 10.0903 20.9378 9.98165 20.8237L0.173938 10.9266C0.0626688 10.8158 -9.75012e-07 10.6647 -9.88807e-07 10.5069C-1.0026e-06 10.3491 0.0626687 10.198 0.173938 10.0872L9.98164 0.188186C10.0906 0.0706379 10.2422 0.00271443 10.4016 7.99232e-05C10.5612 -0.00255503 10.7148 0.0600999 10.8277 0.173986C10.9404 0.287731 11.0027 0.4429 10.9999 0.603787C10.9973 0.764667 10.93 0.91764 10.8135 1.02759L1.42174 10.5069L10.8135 19.984C10.9243 20.0951 10.9866 20.2461 10.9866 20.4038C10.9866 20.5613 10.9243 20.7124 10.8135 20.8235L10.8135 20.8237Z" fill="#2B2D34"/>
</svg>
