<svg width="15" height="14" viewBox="0 0 15 14" fill="none" xmlns="http://www.w3.org/2000/svg">
<path d="M6.5625 8.40004V13.0667C6.5625 13.5823 6.14293 14 5.625 14H0.9375C0.419571 14 0 13.5823 0 13.0667V6.53339C0 3.57475 1.7869 0.787834 4.6875 0.000106658V2.07113C2.9006 2.71238 1.875 4.621 1.875 6.5335V7.46682H5.625C6.14293 7.46682 6.5625 7.88495 6.5625 8.40015V8.40004ZM14.0625 7.46672H10.3125V6.53339C10.3125 4.621 11.3381 2.71235 13.125 2.07102V0C10.2244 0.787701 8.4375 3.57464 8.4375 6.53328V13.0666C8.4375 13.5822 8.85707 13.9999 9.375 13.9999H14.0625C14.5804 13.9999 15 13.5822 15 13.0666V8.39994C15 7.88474 14.5804 7.46661 14.0625 7.46661V7.46672Z" fill="#29DFED"/>
</svg>
