<svg width="54" height="54" viewBox="0 0 54 54" fill="none" xmlns="http://www.w3.org/2000/svg">
<circle cx="27" cy="27" r="27" fill="#F1F1F2"/>
<circle cx="27" cy="27" r="22.5488" stroke="white"/>
<path d="M22.9309 38.4143H30.0691C33.8969 38.4143 37 38.4239 37 34.5958C37 31.7303 35.2604 29.2732 32.7796 28.2177C32.7914 28.2411 32.8049 28.2629 32.8161 28.2872C32.9638 28.6035 33.0597 28.9327 33.1028 29.253C33.2101 29.2829 33.3157 29.3239 33.4179 29.3786C34.1781 29.7852 34.4644 30.7305 34.0576 31.4907C33.6509 32.2507 32.7056 32.5369 31.9454 32.1304C31.1852 31.7241 30.8992 30.7779 31.3057 30.0183C31.5336 29.5922 31.9309 29.3152 32.3702 29.2252C32.2759 28.7447 32.0305 28.2192 31.6405 27.8451C31.3364 27.7745 31.025 27.7232 30.707 27.6943C30.6791 28.9581 26.4999 32.0591 26.4999 32.0591C26.4999 32.0591 22.3208 28.9579 22.2932 27.6943C22.0699 27.7147 21.8496 27.7459 21.6331 27.7869C21.1557 28.1678 20.8201 28.7132 20.7282 29.1563C20.8987 29.2523 21.0325 29.41 21.1073 29.6038C21.7566 29.8887 22.3329 30.5279 22.777 31.4565C22.8425 31.5937 22.8425 31.7499 22.7801 31.8866C23.055 32.5749 23.2125 33.3278 23.2125 33.9612C23.2125 34.9636 23.1688 35.5915 22.3286 35.7581C22.2482 35.8369 22.1409 35.8812 22.0284 35.8812H21.3828C21.1445 35.8812 20.9503 35.6872 20.9503 35.4485V35.4387C20.9557 35.2052 21.1481 35.0159 21.3828 35.0159H22.0284C22.0908 35.0159 22.1525 35.0297 22.2092 35.0562C22.3621 35.0239 22.3875 34.9802 22.4017 34.9558C22.4826 34.8166 22.4988 34.4722 22.4988 33.9612C22.4988 33.4091 22.358 32.748 22.1123 32.1388C22.0019 32.0898 21.9119 32.0036 21.8602 31.8951C21.437 31.0093 20.8637 30.4591 20.3654 30.4591C19.8562 30.4591 19.255 31.0527 18.8337 31.9718C18.7762 32.0972 18.6695 32.1934 18.5405 32.239C18.3154 32.8282 18.1919 33.437 18.1919 33.9608C18.1919 34.3615 18.1998 34.8015 18.2969 34.9574C18.3118 34.9814 18.3418 35.0289 18.5143 35.061C18.5742 35.0311 18.6403 35.0153 18.7083 35.0153H19.3546C19.5843 35.0153 19.7727 35.1955 19.7859 35.4222L19.787 35.4247L19.7866 35.4485C19.7866 35.6871 19.5926 35.8811 19.3542 35.8811H18.708C18.6018 35.8811 18.4996 35.841 18.4205 35.7695C18.1882 35.7312 17.8799 35.6397 17.6903 35.3352C17.5104 35.046 17.4774 34.6456 17.4774 33.9611C17.4774 33.3359 17.6251 32.6169 17.8942 31.9302C17.8491 31.8054 17.8541 31.6693 17.9097 31.5492C18.1759 30.967 18.5127 30.4708 18.8833 30.114C19.0992 29.9052 19.3315 29.742 19.5738 29.6279C19.6525 29.4067 19.81 29.2284 20.0093 29.1323C20.0548 28.8096 20.181 28.4739 20.3712 28.1543C17.8106 29.1731 16 31.6725 16 34.5956C16 38.4237 19.103 38.4141 22.9305 38.4141L22.9309 38.4143ZM28.3213 34.5444C28.3213 34.4544 28.403 34.3818 28.5035 34.3818H29.4924V33.3931C29.4924 33.2924 29.565 33.2109 29.6548 33.2109H30.6306C30.72 33.2109 30.793 33.2924 30.793 33.3931V34.3818H31.7818C31.8826 34.3818 31.9637 34.4544 31.9637 34.5444V35.52C31.9637 35.61 31.8822 35.6826 31.7818 35.6826H30.7928V36.6713C30.7928 36.772 30.72 36.8534 30.6304 36.8534H29.6546C29.5648 36.8534 29.4922 36.772 29.4922 36.6713V35.6826H28.5035C28.4032 35.6826 28.3213 35.61 28.3213 35.52V34.5444Z" fill="#494D58"/>
<path d="M21.2578 21.4296C21.2615 21.4795 21.2658 21.5292 21.2705 21.5789C21.605 25.3632 23.8186 28.2874 26.5007 28.2874C29.1822 28.2874 31.3963 25.3634 31.7308 21.5794C31.7356 21.5297 31.7394 21.48 31.7435 21.4301C31.7675 21.2658 31.7831 21.0996 31.7927 20.931C31.7993 20.8158 31.804 20.7 31.804 20.5829C31.804 20.2951 31.7831 20.0122 31.7435 19.7358C31.3557 17.0546 29.1561 15 26.5004 15C23.8447 15 21.6451 17.0545 21.2577 19.7358C21.2176 20.012 21.1973 20.2951 21.1973 20.5829C21.1973 20.7 21.202 20.8158 21.208 20.931C21.218 21.0996 21.2337 21.2658 21.2577 21.4299L21.2578 21.4296ZM23.2294 18.4197C23.2294 18.4197 24.7557 19.1608 26.5006 19.2085C28.2455 19.161 29.7719 18.4197 29.7719 18.4197C30.8781 18.8559 30.3536 21.9664 30.3536 21.9668C30.6302 21.774 30.883 21.6739 31.0893 21.622C30.7852 24.9275 28.8472 27.4765 26.5006 27.4765C24.154 27.4765 22.2155 24.9277 21.9112 21.622C22.1175 21.6737 22.3712 21.7739 22.6469 21.9668C22.6472 21.9664 22.1232 18.856 23.2294 18.4197V18.4197Z" fill="#494D58"/>
</svg>
