<svg width="54" height="54" viewBox="0 0 54 54" fill="none" xmlns="http://www.w3.org/2000/svg">
<circle cx="27" cy="27" r="27" fill="#F1F1F2"/>
<circle cx="27" cy="27" r="22.5488" stroke="white"/>
<path d="M23.5689 25.7216L24.4261 24.538C24.4261 24.538 22.5581 22.9721 22.7131 20.223C27.4335 19.7556 27.0166 17.2134 28.6269 17.2134C29.897 17.2134 30.0583 20.5923 29.7166 21.8828C29.3138 23.4046 28.575 24.5372 28.575 24.5372L29.4322 25.7208C30.5377 25.3065 32.588 23.7065 32.588 20.153C32.588 17.8483 31.6736 16.3761 30.5539 15.4354C30.5539 15.4354 29.0376 14 26.5008 14C23.9641 14 22.4465 15.4354 22.4465 15.4354C21.3274 16.3762 20.4138 17.8483 20.4138 20.153C20.4138 23.7074 22.4622 25.3076 23.5691 25.7218L23.5689 25.7216Z" fill="#494D58"/>
<path d="M31.3416 26.6124H30.9551V29.3205C32.1176 29.4253 32.815 30.1315 32.9001 32.7103C33.1749 32.8397 33.3668 33.1165 33.3668 33.4396C33.3668 33.8852 33.0043 34.2477 32.5587 34.2477C32.1124 34.2477 31.7505 33.8858 31.7505 33.4396C31.7505 33.1239 31.9329 32.8532 32.1967 32.7199C32.1076 30.0091 31.3437 30.0071 30.6021 30.0071C29.8606 30.0071 29.0953 30.0091 29.0076 32.7199C29.2708 32.8527 29.4538 33.1241 29.4538 33.4396C29.4538 33.8852 29.0927 34.2477 28.6456 34.2477C28.1986 34.2477 27.8375 33.8858 27.8375 33.4396C27.8375 33.1157 28.0286 32.8395 28.3028 32.7103C28.3879 30.1314 29.0851 29.4253 30.2491 29.3205V26.6124H29.1267L26.5 30.875L23.872 26.6124H22.7496V30.9531C23.1625 31.0994 23.4605 31.4884 23.4605 31.9524C23.4605 32.5388 22.9849 33.0157 22.3972 33.0157C21.8094 33.0157 21.3339 32.5396 21.3339 31.9524C21.3339 31.4885 21.6319 31.0994 22.0449 30.9531V26.6124H21.6584C19.9979 26.6124 19 27.6416 19 29.2708V36.1571C19 37.2638 19.9979 39.4774 21.6584 39.4774H26.5H31.3416C33.0008 39.4774 34 37.2638 34 36.1571V29.2708C34 27.6416 33.0013 26.6124 31.3416 26.6124H31.3416Z" fill="#494D58"/>
</svg>
