<svg width="54" height="54" viewBox="0 0 54 54" fill="none" xmlns="http://www.w3.org/2000/svg">
<circle cx="27" cy="27" r="27" fill="#F1F1F2"/>
<circle cx="27" cy="27" r="22.5488" stroke="white"/>
<path d="M33.5795 26.8476C33.5919 26.8722 33.6057 26.895 33.6173 26.921C33.7721 27.2524 33.873 27.5967 33.9183 27.9328C34.0306 27.9636 34.1413 28.0068 34.2483 28.0642C35.0453 28.4903 35.3444 29.4804 34.9185 30.277C34.4925 31.0729 33.5025 31.3731 32.7061 30.9472C31.9091 30.5211 31.6101 29.5303 32.0359 28.7344C32.2743 28.2876 32.6903 27.9977 33.1506 27.9034C33.0521 27.4 32.7947 26.8494 32.3857 26.4575C32.0675 26.3836 31.7414 26.3298 31.4081 26.2996C31.3798 27.6233 29.4172 28.6918 27.001 28.6918C24.5842 28.6918 22.6227 27.6233 22.5938 26.2996C22.36 26.3209 22.1292 26.3536 21.9022 26.3963C21.4023 26.7956 21.0506 27.3669 20.9542 27.8313C21.1329 27.9319 21.273 28.0973 21.3514 28.3002C22.0316 28.5988 22.6354 29.2686 23.1006 30.2411C23.1693 30.3848 23.1693 30.5485 23.1039 30.6917C23.3919 31.4128 23.5569 32.2016 23.5569 32.8651C23.5569 33.9155 23.5111 34.5735 22.6309 34.7477C22.5466 34.8302 22.4343 34.8769 22.3164 34.8769L21.639 34.8762C21.3894 34.8762 21.186 34.6729 21.186 34.4226V34.4125C21.1917 34.168 21.3932 33.9695 21.639 33.9695H22.3154C22.3808 33.9695 22.4455 33.9841 22.5048 34.0115C22.6651 33.9777 22.6917 33.9319 22.7065 33.9064C22.7913 33.7606 22.8082 33.3999 22.8082 32.8644C22.8082 32.286 22.6607 31.5938 22.4033 30.9552C22.2877 30.9038 22.1934 30.8131 22.1392 30.6998C21.6958 29.7719 21.0953 29.195 20.5732 29.195C20.0397 29.195 19.4098 29.8169 18.9686 30.7797C18.9083 30.9109 18.7965 31.0122 18.6613 31.0596C18.4256 31.6767 18.2961 32.3143 18.2961 32.863C18.2961 33.2828 18.3045 33.7439 18.4062 33.9072C18.4218 33.9324 18.4531 33.9819 18.6339 34.0153C18.6967 33.9844 18.7659 33.9674 18.8372 33.9674H19.5142C19.7549 33.9674 19.9522 34.156 19.9661 34.3935L19.9672 34.3961L19.9674 34.4228C19.9674 34.673 19.7642 34.8764 19.5144 34.8764H18.8374C18.7262 34.8764 18.6191 34.8344 18.5362 34.7593C18.2929 34.7195 17.9698 34.6233 17.7712 34.3043C17.5828 34.0013 17.5482 33.5819 17.5482 32.8647C17.5482 32.21 17.7029 31.4565 17.9849 30.7371C17.9375 30.6065 17.9429 30.4637 18.001 30.3375C18.2799 29.7278 18.6328 29.2074 19.021 28.834C19.2473 28.6148 19.4906 28.4441 19.7444 28.3247C19.8269 28.0927 19.9919 27.9062 20.2007 27.8057C20.2484 27.4676 20.3805 27.1159 20.5798 26.7809C17.8968 27.8484 16 30.4669 16 33.5295C16 37.5401 19.2508 37.53 23.2607 37.53H30.7389C34.7491 37.53 38 37.5401 38 33.5295C37.9998 30.5277 36.1775 27.9534 33.579 26.8476L33.5795 26.8476ZM32.7236 34.4977C32.7236 34.592 32.6382 34.668 32.5331 34.668H31.4971V35.7038C31.4971 35.8095 31.4209 35.8946 31.327 35.8946H30.3047C30.2106 35.8946 30.1345 35.8093 30.1345 35.7038V34.668H29.0986C28.9931 34.668 28.9077 34.592 28.9077 34.4977V33.4756C28.9077 33.3813 28.9931 33.3052 29.0986 33.3052H30.1345V32.2695C30.1345 32.1638 30.2106 32.0786 30.3047 32.0786H31.327C31.4207 32.0786 31.4971 32.164 31.4971 32.2695V33.3052H32.5331C32.6388 33.3052 32.7236 33.3813 32.7236 33.4756V34.4977Z" fill="#494D58"/>
<path d="M21.5083 19.7359C21.5121 19.7882 21.5167 19.8403 21.5216 19.8924C21.872 23.8569 24.1911 26.9204 27.0009 26.9204C29.8101 26.9204 32.1298 23.8572 32.4802 19.8929C32.4857 19.8408 32.4892 19.7887 32.4935 19.7364C32.5192 19.5643 32.535 19.3902 32.5451 19.2136C32.5519 19.0928 32.5568 18.9715 32.5568 18.8489C32.5568 18.5474 32.535 18.251 32.4935 17.9615C32.0872 15.1524 29.7828 13 27.0006 13C24.2183 13 21.914 15.1524 21.5081 17.9615C21.4661 18.2508 21.4448 18.5474 21.4448 18.8489C21.4448 18.9715 21.4498 19.0928 21.456 19.2136C21.4665 19.3902 21.483 19.5643 21.5081 19.7362L21.5083 19.7359ZM30.2972 24.1816C30.1122 23.5561 29.7107 23.0006 29.2192 22.5622L31.7526 20.4094C31.5461 21.886 31.0259 23.195 30.2972 24.1817L30.2972 24.1816ZM23.5739 16.5827C23.5739 16.5827 25.1729 17.3592 27.0009 17.4092C28.8289 17.3594 30.428 16.5827 30.428 16.5827C31.3339 16.9404 31.1955 19.0115 31.0925 19.8971L28.5453 22.0618C28.0059 21.7361 27.4378 21.5481 26.973 21.5481C26.5142 21.5481 25.964 21.7316 25.4411 22.0485L22.9088 19.8967C22.8055 19.0106 22.6675 16.9404 23.5738 16.5827H23.5739ZM24.7695 22.5507C24.2836 22.9906 23.8868 23.5501 23.7039 24.1806C22.9753 23.1939 22.455 21.8851 22.2487 20.4084L24.7695 22.5507Z" fill="#494D58"/>
</svg>
