<svg width="54" height="54" viewBox="0 0 54 54" fill="none" xmlns="http://www.w3.org/2000/svg">
<circle cx="27" cy="27" r="27" fill="#F1F1F2"/>
<circle cx="27" cy="27" r="22.5488" stroke="white"/>
<path d="M26.5012 16.6254C25.4504 16.6254 24.5989 17.4785 24.5989 18.5277C24.5989 19.5784 25.4504 20.43 26.5012 20.43C27.5512 20.43 28.4035 19.5784 28.4035 18.5277C28.4035 17.4776 27.5512 16.6254 26.5012 16.6254V16.6254ZM26.5012 19.2427C26.1056 19.2427 25.7862 18.9231 25.7862 18.5277C25.7862 18.1322 26.1056 17.8127 26.5012 17.8127C26.8952 17.8127 27.2162 18.1322 27.2162 18.5277C27.2162 18.9233 26.8952 19.2427 26.5012 19.2427Z" fill="#494D58"/>
<path d="M23.9633 18.4718C23.9935 17.0937 25.1158 15.9831 26.5017 15.9831C27.8875 15.9831 29.0097 17.0937 29.04 18.4718C30.0047 18.4222 30.9625 18.2919 31.9026 18.0748L31.715 16.416C31.6894 16.1825 31.4893 15.9235 31.2713 15.839C31.2713 15.839 29.1038 15 26.502 15C23.9002 15 21.7327 15.839 21.7327 15.839C21.5147 15.9236 21.3146 16.1825 21.289 16.416L21.1003 18.0748C22.0411 18.2912 22.9982 18.4215 23.9636 18.4718H23.9633Z" fill="#494D58"/>
<path d="M31.9867 18.8169C30.9839 19.0425 29.9649 19.1775 28.9372 19.2225C28.6333 20.2874 27.664 21.0723 26.5022 21.0723C25.3404 21.0723 24.371 20.2875 24.0663 19.2227C23.0394 19.177 22.0181 19.0427 21.0168 18.8171L20.7911 20.8179C20.7663 21.0498 20.9238 21.3072 21.1432 21.3886C21.1432 21.3886 22.9355 22.0548 26.5021 22.0548C30.068 22.0548 31.861 21.3886 31.861 21.3886C32.0804 21.3072 32.2378 21.0489 32.2123 20.8179L31.9867 18.8169Z" fill="#494D58"/>
<path d="M29.3025 30.2103C29.3025 30.2103 28.2392 31.4147 26.5021 31.4147C24.7649 31.4147 23.7017 30.2103 23.7017 30.2103V25.7905C23.7017 25.7905 25.9298 24.839 26.5021 24.839C27.076 24.839 29.3025 25.7905 29.3025 25.7905V30.2103Z" fill="#494D58"/>
<path d="M32.6913 22.9123C32.375 22.3144 31.7777 21.984 31.0115 21.984V22.8356C31.4597 22.8356 31.7714 22.996 31.9397 23.3109C32.1491 23.7065 32.0972 24.3106 31.8203 24.7177C31.6916 24.9085 31.466 25.1249 31.1193 25.0875L30.7137 25.0433L30.5926 25.8475C30.5685 26.0778 30.4182 27.2201 29.8171 28.2866V29.736C31.1285 28.3184 31.4015 26.2826 31.4365 25.9475L31.4411 25.9234C31.8685 25.8552 32.25 25.6023 32.5253 25.1959C32.9805 24.5254 33.0487 23.5864 32.6913 22.9123L32.6913 22.9123Z" fill="#494D58"/>
<path d="M23.1865 28.2853C22.5839 27.2144 22.4335 26.0649 22.4078 25.8207L22.2883 25.0436L21.8844 25.0879C21.5439 25.1275 21.312 24.9095 21.1817 24.718C20.9048 24.3108 20.8545 23.7059 21.0639 23.3112C21.2306 22.9963 21.5423 22.8359 21.9922 22.8359V21.9841C21.2243 21.9841 20.6288 22.3146 20.3123 22.9124C19.9547 23.5863 20.0231 24.5255 20.479 25.1964C20.7543 25.602 21.1367 25.8557 21.5632 25.9239L21.5648 25.9378C21.6012 26.2782 21.8751 28.3171 23.1872 29.7363L23.1873 28.2853L23.1865 28.2853Z" fill="#494D58"/>
<path d="M36.6662 35.2798C36.1272 31.2323 31.039 30.5978 31.039 30.5978C29.2669 32.4412 27.1296 32.584 26.5005 32.584C25.87 32.584 23.7349 32.4413 21.962 30.5978C21.962 30.5978 16.8723 31.2322 16.3349 35.2798C15.9362 38.2772 16.0044 39.8167 16.0044 39.8167H36.9953C36.9953 39.8167 37.0651 38.278 36.6665 35.2798H36.6662ZM33.5842 36.8099C33.5842 36.972 33.4523 37.1037 33.2904 37.1037H29.4461C29.2841 37.1037 29.1523 36.9718 29.1523 36.8099V35.8041C29.1523 35.6436 29.2842 35.5103 29.4461 35.5103H33.2904C33.4525 35.5103 33.5842 35.6436 33.5842 35.8041V36.8099Z" fill="#494D58"/>
</svg>
