<svg width="54" height="54" viewBox="0 0 54 54" fill="none" xmlns="http://www.w3.org/2000/svg">
<circle cx="27" cy="27" r="27" fill="#F1F1F2"/>
<circle cx="27" cy="27" r="22.5488" stroke="white"/>
<path d="M27.0535 23.6863C24.04 23.6863 21.9385 20.2992 21.9385 17.2587C21.9385 14.212 24.09 12 27.0535 12C30.0179 12 32.1685 14.2111 32.1685 17.2587C32.1677 20.2994 30.0678 23.6863 27.0535 23.6863V23.6863ZM27.0535 13.2828C24.7619 13.2828 23.222 14.8806 23.222 17.2597C23.222 19.903 25.0841 22.4038 27.0535 22.4038C29.0239 22.4038 30.8868 19.9039 30.8868 17.2597C30.8868 14.8806 29.346 13.2828 27.0535 13.2828V13.2828Z" fill="#494D58"/>
<path d="M19.5137 26.7218V26.5318C19.5137 24.8194 20.5068 23.9534 22.4649 23.9534C22.6486 23.9534 22.8071 23.962 22.926 23.9717C23.4238 24.5457 24.8911 25.9815 27.0813 25.9815C29.2714 25.9815 30.7379 24.5457 31.2366 23.9717C31.3556 23.9612 31.5131 23.9534 31.6976 23.9534C33.6557 23.9534 34.6489 24.8196 34.6489 26.5318V26.7218H35.9317V26.5318C35.9317 24.1135 34.348 22.6698 31.6976 22.6698C31.1796 22.6698 30.8157 22.7292 30.8007 22.7328L30.5409 22.7757L30.3868 22.9874C30.3727 23.005 29.1145 24.6998 27.0811 24.6998C25.0659 24.6998 23.7868 23.0034 23.7753 22.9874L23.6204 22.7757L23.3614 22.7328C23.3457 22.7294 22.98 22.6698 22.4645 22.6698C19.8142 22.6698 18.2305 24.1135 18.2305 26.5318V26.7218H19.5137Z" fill="#494D58"/>
<path d="M35.9416 27.4193H18.2215C17.547 27.4193 17 27.968 17 28.6425V38.7784C17 39.4529 17.5468 39.9999 18.2215 39.9999H35.9416C36.6161 39.9999 37.1631 39.4531 37.1631 38.7784L37.1629 28.6435C37.1629 27.968 36.6161 27.4194 35.9415 27.4194L35.9416 27.4193ZM32.2894 35.4391C31.0251 34.5064 29.3617 33.9972 27.6589 33.901V35.6291C29.128 35.7209 30.5576 36.1453 31.6366 36.9415C32.1853 37.3465 31.6541 38.2724 31.0984 37.8645C30.1552 37.1689 28.925 36.7944 27.6589 36.7026V38.6677C27.6589 39.3563 26.5897 39.3563 26.5897 38.6677V36.6973C25.2948 36.7761 24.0295 37.1531 23.0644 37.8645C22.5087 38.2732 21.9776 37.3465 22.5262 36.9415C23.6269 36.1296 25.0915 35.7042 26.5904 35.6238V33.8976C24.8579 33.9797 23.1596 34.4907 21.8734 35.4393C21.3177 35.8496 20.7858 34.9213 21.3336 34.5163C22.7554 33.4671 24.6551 32.908 26.5903 32.8259V31.1302C25.1701 31.1984 23.779 31.5213 22.6801 32.1285C22.0773 32.4637 21.5373 31.5388 22.1403 31.2055C23.4064 30.5046 24.984 30.1372 26.5905 30.0671V28.7668C26.5905 28.0782 27.6598 28.0782 27.6598 28.7668V30.0671C29.2662 30.1372 30.8439 30.5046 32.1089 31.2055C32.7117 31.5388 32.1728 32.4637 31.5699 32.1285C30.4711 31.5221 29.0807 31.1984 27.6598 31.1302V32.8285C29.5663 32.9221 31.4291 33.4829 32.8298 34.5155C33.3766 34.9214 32.8447 35.8497 32.289 35.4392L32.2894 35.4391Z" fill="#494D58"/>
</svg>
