<svg width="54" height="54" viewBox="0 0 54 54" fill="none" xmlns="http://www.w3.org/2000/svg">
<circle cx="27" cy="27" r="27" fill="#F1F1F2"/>
<circle cx="27" cy="27" r="22.5488" stroke="white"/>
<path d="M36.043 21.3069V31.9205C36.043 32.7016 35.6132 33.3798 34.9817 33.7481V31.9206H27.5522V30.8593H31.7977C33.5532 30.8593 34.9818 29.4308 34.9818 27.6752V19.1841C34.9818 17.4286 33.5532 16 31.7977 16H21.1841C19.4286 16 18 17.4286 18 19.1841V27.6752C18 29.4308 19.4286 30.8593 21.1841 30.8593H25.4295V31.9206H18.0001V37.2276H34.9819V36.0155C36.8074 35.5411 38.166 33.8927 38.166 31.9207V21.3067C38.166 20.7209 38.6425 20.2454 39.2273 20.2454V18.1226C37.4717 18.1226 36.0432 19.5512 36.0432 21.3067L36.043 21.3069ZM26.583 26.6412C26.4121 26.6041 26.2953 26.6041 26.1235 26.6412L25.5545 26.7686L20.3462 21.5603L21.344 20.829C24.2797 18.6776 28.4286 18.6776 31.3634 20.829L32.3611 21.5603L27.1519 26.7686L26.583 26.6412Z" fill="#494D58"/>
<path d="M23.6844 21.8983L26.2795 24.4923C26.3049 24.4912 26.3293 24.4912 26.3538 24.4912C26.3781 24.4912 26.4027 24.4912 26.4281 24.4923L29.0232 21.8983C27.3579 21.1203 25.3497 21.1203 23.6843 21.8983H23.6844Z" fill="#494D58"/>
</svg>
