<svg width="54" height="54" viewBox="0 0 54 54" fill="none" xmlns="http://www.w3.org/2000/svg">
<circle cx="27" cy="27" r="27" fill="#F1F1F2"/>
<circle cx="27" cy="27" r="22.5488" stroke="white"/>
<path d="M37.8343 23.5105C37.6675 24.0666 37.3059 24.901 36.8889 25.8186C37.1391 26.4304 37.1114 27.2368 36.6664 28.1268C36.5552 28.3493 36.4162 28.5717 36.2493 28.7942C35.8323 29.3503 35.2759 29.9622 34.6642 30.6296C34.6364 30.6853 34.5807 30.7131 34.5251 30.7687C34.386 30.9356 34.1358 30.9912 33.941 30.8521C33.7185 30.7131 33.6628 30.3794 33.8576 30.1847C33.9132 30.129 33.941 30.0735 33.9967 30.0179C34.7753 29.1558 35.5262 28.3492 35.8598 27.7097C36.4439 26.5418 36.0546 25.7909 35.4983 25.4573C35.0255 25.1791 34.386 25.1791 34.0244 25.7075C33.524 26.4584 32.8287 27.2648 32.1335 28.0156C31.3549 28.9056 30.5763 29.8511 30.1313 30.574C29.6308 31.4084 28.9911 33.3549 28.8799 35.4406C28.8243 36.4417 28.7965 37.6096 28.7688 38.3049C28.7688 38.6664 29.047 38.9444 29.4083 38.9444H33.4962C33.8578 38.9444 34.1358 38.6662 34.1358 38.3049V37.1369C34.1358 36.8587 34.2749 36.6085 34.4973 36.4417C35.9435 35.4406 37.306 34.2449 38.0846 33.3549C39.7532 31.4084 40.365 25.6797 40.4484 23.9556C40.5039 22.3149 38.3348 21.9256 37.8343 23.5106L37.8343 23.5105Z" fill="#494D58"/>
<path d="M24.2915 30.6018C23.8465 29.8509 23.0679 28.9332 22.2893 28.0434C21.6218 27.2648 20.8988 26.4862 20.3984 25.7353C20.0368 25.2069 19.3973 25.2069 18.9245 25.4851C18.3684 25.8187 17.9511 26.5973 18.5629 27.7375C18.8689 28.3493 19.6197 29.1836 20.4261 30.0456C20.4818 30.1013 20.5095 30.1568 20.5652 30.2125C20.76 30.4072 20.7043 30.7409 20.4818 30.8799C20.287 30.9911 20.0368 30.9356 19.8977 30.7965C19.842 30.7408 19.8143 30.7131 19.7586 30.6574C19.1468 29.99 18.5907 29.3781 18.1734 28.822C18.0066 28.5995 17.8675 28.377 17.7564 28.1545C17.2837 27.2646 17.2837 26.4582 17.5339 25.8464C17.1168 24.9287 16.7553 24.0944 16.5885 23.5383C16.088 21.9256 13.9189 22.3149 14.0023 24.039C14.0858 25.7353 14.6976 31.4639 16.3662 33.4105C17.1171 34.3005 18.5075 35.4961 19.9534 36.4973C20.1759 36.6641 20.315 36.9143 20.315 37.1925V38.3604C20.315 38.722 20.5931 39 20.9545 39H25.0424C25.404 39 25.682 38.7218 25.682 38.3604C25.6542 37.6652 25.6263 36.4973 25.5708 35.4961C25.404 33.4105 24.7643 31.436 24.2915 30.6017L24.2915 30.6018Z" fill="#494D58"/>
<path d="M33.4127 20.2013C33.4127 16.7809 30.6318 14 27.2113 14C23.7909 14 21.01 16.7809 21.01 20.2013C21.01 23.6218 23.7909 26.4027 27.2113 26.4027C30.6318 26.4027 33.4127 23.6218 33.4127 20.2013ZM29.2136 21.0077H28.0179V22.2034C28.0179 22.6483 27.6564 23.0097 27.2116 23.0097C26.7666 23.0097 26.4052 22.6481 26.4052 22.2034V21.0077H25.2096C24.7646 21.0077 24.4032 20.6461 24.4032 20.2013C24.4032 19.7564 24.7648 19.395 25.2096 19.395H26.4052V18.1993C26.4052 17.7543 26.7668 17.393 27.2116 17.393C27.6566 17.393 28.0179 17.7545 28.0179 18.1993V19.395H29.2136C29.6586 19.395 30.02 19.7566 30.02 20.2013C30.02 20.6461 29.6586 21.0077 29.2136 21.0077Z" fill="#494D58"/>
</svg>
