<svg width="21" height="24" viewBox="0 0 21 24" fill="none" xmlns="http://www.w3.org/2000/svg">
<path d="M6.93091 23.4143H14.0691C17.8969 23.4143 21 23.4239 21 19.5958C21 16.7303 19.2604 14.2732 16.7796 13.2177C16.7914 13.2411 16.8049 13.2629 16.8161 13.2872C16.9638 13.6035 17.0597 13.9327 17.1028 14.253C17.2101 14.2829 17.3157 14.3239 17.4179 14.3786C18.1781 14.7852 18.4644 15.7305 18.0576 16.4907C17.6509 17.2507 16.7056 17.5369 15.9454 17.1304C15.1852 16.7241 14.8992 15.7779 15.3057 15.0183C15.5336 14.5922 15.9309 14.3152 16.3702 14.2252C16.2759 13.7447 16.0305 13.2192 15.6405 12.8451C15.3364 12.7745 15.025 12.7232 14.707 12.6943C14.6791 13.9581 10.4999 17.0591 10.4999 17.0591C10.4999 17.0591 6.32076 13.9579 6.29316 12.6943C6.06995 12.7147 5.84964 12.7459 5.63314 12.7869C5.1557 13.1678 4.82014 13.7132 4.72816 14.1563C4.89874 14.2523 5.03249 14.41 5.10726 14.6038C5.75659 14.8887 6.33294 15.5279 6.77697 16.4565C6.84249 16.5937 6.84249 16.7499 6.78006 16.8866C7.05499 17.5749 7.21251 18.3278 7.21251 18.9612C7.21251 19.9636 7.16877 20.5915 6.32857 20.7581C6.24818 20.8369 6.14092 20.8812 6.02841 20.8812H5.38275C5.14448 20.8812 4.9503 20.6872 4.9503 20.4485V20.4387C4.95575 20.2052 5.14811 20.0159 5.38275 20.0159H6.02841C6.09084 20.0159 6.15254 20.0297 6.20916 20.0562C6.36214 20.0239 6.38755 19.9802 6.4017 19.9558C6.48264 19.8166 6.49879 19.4722 6.49879 18.9612C6.49879 18.4091 6.35797 17.748 6.11225 17.1388C6.00191 17.0898 5.9119 17.0036 5.86018 16.8951C5.43699 16.0093 4.86372 15.4591 4.36538 15.4591C3.85616 15.4591 3.25496 16.0527 2.83373 16.9718C2.7762 17.0972 2.6695 17.1934 2.54047 17.239C2.31544 17.8282 2.19186 18.437 2.19186 18.9608C2.19186 19.3615 2.19985 19.8015 2.29693 19.9574C2.31181 19.9814 2.34176 20.0289 2.51434 20.061C2.57423 20.0311 2.64028 20.0153 2.70833 20.0153H3.35455C3.5843 20.0153 3.77267 20.1955 3.78592 20.4222L3.78701 20.4247L3.78664 20.4485C3.78664 20.6871 3.59265 20.8811 3.35419 20.8811H2.70797C2.60181 20.8811 2.49964 20.841 2.42052 20.7695C2.18823 20.7312 1.8799 20.6397 1.69026 20.3352C1.51042 20.046 1.47739 19.6456 1.47739 18.9611C1.47739 18.3359 1.62511 17.6169 1.89424 16.9302C1.84905 16.8054 1.85413 16.6693 1.90966 16.5492C2.17589 15.967 2.51268 15.4708 2.88327 15.114C3.09922 14.9052 3.3315 14.742 3.57376 14.6279C3.65252 14.4067 3.81004 14.2284 4.00929 14.1323C4.05484 13.8096 4.18097 13.4739 4.37115 13.1543C1.81058 14.1731 0 16.6725 0 19.5956C0 23.4237 3.10301 23.4141 6.93048 23.4141L6.93091 23.4143ZM12.3213 19.5444C12.3213 19.4544 12.403 19.3818 12.5035 19.3818H13.4924V18.3931C13.4924 18.2924 13.565 18.2109 13.6548 18.2109H14.6306C14.72 18.2109 14.793 18.2924 14.793 18.3931V19.3818H15.7818C15.8826 19.3818 15.9637 19.4544 15.9637 19.5444V20.52C15.9637 20.61 15.8822 20.6826 15.7818 20.6826H14.7928V21.6713C14.7928 21.772 14.72 21.8534 14.6304 21.8534H13.6546C13.5648 21.8534 13.4922 21.772 13.4922 21.6713V20.6826H12.5035C12.4032 20.6826 12.3213 20.61 12.3213 20.52V19.5444Z" fill="#494D58"/>
<path d="M5.25772 6.42959C5.26135 6.47949 5.26571 6.52922 5.27042 6.57894C5.60488 10.3632 7.81851 13.2874 10.5006 13.2874C13.182 13.2874 15.3962 10.3634 15.7307 6.5794C15.7354 6.52968 15.7392 6.47996 15.7434 6.43005C15.7674 6.26582 15.783 6.09959 15.7926 5.93101C15.7991 5.81577 15.8039 5.69999 15.8039 5.58294C15.8039 5.29513 15.783 5.01222 15.7434 4.73584C15.3556 2.05457 13.156 0 10.5003 0C7.84454 0 5.64503 2.05448 5.25757 4.73584C5.21747 5.01205 5.19714 5.29514 5.19714 5.58294C5.19714 5.69999 5.20186 5.81577 5.20785 5.93101C5.21783 6.0996 5.23362 6.26583 5.25757 6.42987L5.25772 6.42959ZM7.22927 3.41967C7.22927 3.41967 8.75562 4.16081 10.5005 4.20852C12.2454 4.16097 13.7717 3.41967 13.7717 3.41967C14.878 3.85594 14.3535 6.9664 14.3535 6.96677C14.6301 6.77405 14.8829 6.67387 15.0892 6.62197C14.7851 9.92749 12.8471 12.4765 10.5005 12.4765C8.15391 12.4765 6.21539 9.92772 5.91105 6.62197C6.11738 6.67369 6.37108 6.77386 6.64674 6.96677C6.64711 6.96641 6.12303 3.85595 7.22927 3.41967Z" fill="#494D58"/>
</svg>
