<svg width="15" height="26" viewBox="0 0 15 26" fill="none" xmlns="http://www.w3.org/2000/svg">
<path d="M4.56875 11.7216L5.42594 10.538C5.42594 10.538 3.55793 8.97209 3.71298 6.22296C8.43339 5.7556 8.01645 3.21337 9.62676 3.21337C10.8969 3.21337 11.0581 6.5923 10.7165 7.88276C10.3137 9.40459 9.57492 10.5372 9.57492 10.5372L10.4321 11.7208C11.5376 11.3065 13.5878 9.70653 13.5878 6.15296C13.5878 3.84827 12.6734 2.37607 11.5538 1.43536C11.5538 1.43536 10.0375 0 7.50069 0C4.964 0 3.44635 1.43536 3.44635 1.43536C2.32727 2.37622 1.4137 3.84827 1.4137 6.15296C1.4137 9.70745 3.46206 11.3076 4.569 11.7218L4.56875 11.7216Z" fill="#494D58"/>
<path d="M12.3416 12.6124H11.9551V15.3205C13.1176 15.4253 13.815 16.1315 13.9001 18.7103C14.1749 18.8397 14.3668 19.1165 14.3668 19.4396C14.3668 19.8852 14.0043 20.2477 13.5587 20.2477C13.1124 20.2477 12.7505 19.8858 12.7505 19.4396C12.7505 19.1239 12.9329 18.8532 13.1967 18.7199C13.1076 16.0091 12.3437 16.0071 11.6021 16.0071C10.8606 16.0071 10.0953 16.0091 10.0076 18.7199C10.2708 18.8527 10.4538 19.1241 10.4538 19.4396C10.4538 19.8852 10.0927 20.2477 9.64562 20.2477C9.19859 20.2477 8.83745 19.8858 8.83745 19.4396C8.83745 19.1157 9.02858 18.8395 9.30282 18.7103C9.38792 16.1314 10.0851 15.4253 11.2491 15.3205V12.6124H10.1267L7.49996 16.875L4.872 12.6124H3.74955V16.9531C4.1625 17.0994 4.46047 17.4884 4.46047 17.9524C4.46047 18.5388 3.98494 19.0157 3.3972 19.0157C2.80945 19.0157 2.33394 18.5396 2.33394 17.9524C2.33394 17.4885 2.63189 17.0994 3.04486 16.9531V12.6124H2.65842C0.997857 12.6124 0 13.6416 0 15.2708V22.1571C0 23.2638 0.997908 25.4774 2.65842 25.4774H7.5H12.3416C14.0008 25.4774 15 23.2638 15 22.1571V15.2708C15 13.6416 14.0013 12.6124 12.3416 12.6124H12.3416Z" fill="#494D58"/>
</svg>
