<svg width="22" height="25" viewBox="0 0 22 25" fill="none" xmlns="http://www.w3.org/2000/svg">
<path d="M17.5795 13.8476C17.5919 13.8722 17.6057 13.895 17.6173 13.921C17.7721 14.2524 17.873 14.5967 17.9183 14.9328C18.0306 14.9636 18.1413 15.0068 18.2483 15.0642C19.0453 15.4903 19.3444 16.4804 18.9185 17.277C18.4925 18.0729 17.5025 18.3731 16.7061 17.9472C15.9091 17.5211 15.6101 16.5303 16.0359 15.7344C16.2743 15.2876 16.6903 14.9977 17.1506 14.9034C17.0521 14.4 16.7947 13.8494 16.3857 13.4575C16.0675 13.3836 15.7414 13.3298 15.4081 13.2996C15.3798 14.6233 13.4172 15.6918 11.001 15.6918C8.58419 15.6918 6.62272 14.6233 6.59381 13.2996C6.35996 13.3209 6.12916 13.3536 5.90216 13.3963C5.40231 13.7956 5.05062 14.3669 4.9542 14.8313C5.13291 14.9319 5.27303 15.0973 5.35136 15.3002C6.03163 15.5988 6.63543 16.2686 7.10063 17.2411C7.16926 17.3848 7.16926 17.5485 7.10386 17.6917C7.39189 18.4128 7.55691 19.2016 7.55691 19.8651C7.55691 20.9155 7.51109 21.5735 6.63086 21.7477C6.54663 21.8302 6.43427 21.8769 6.3164 21.8769L5.63901 21.8762C5.38938 21.8762 5.18596 21.6729 5.18596 21.4226V21.4125C5.19166 21.168 5.39318 20.9695 5.63901 20.9695H6.31543C6.38083 20.9695 6.44547 20.9841 6.50479 21.0115C6.66506 20.9777 6.69167 20.9319 6.7065 20.9064C6.7913 20.7606 6.80821 20.3999 6.80821 19.8644C6.80821 19.286 6.66068 18.5938 6.40326 17.9552C6.28767 17.9038 6.19337 17.8131 6.13918 17.6998C5.69583 16.7719 5.09525 16.195 4.57317 16.195C4.03969 16.195 3.40985 16.8169 2.96855 17.7797C2.90828 17.9109 2.79649 18.0122 2.66132 18.0596C2.42557 18.6767 2.2961 19.3143 2.2961 19.863C2.2961 20.2828 2.30447 20.7439 2.40618 20.9072C2.42177 20.9324 2.45314 20.9819 2.63394 21.0153C2.69668 20.9844 2.76588 20.9674 2.83718 20.9674H3.51418C3.75487 20.9674 3.95222 21.156 3.9661 21.3935L3.96724 21.3961L3.96743 21.4228C3.96743 21.673 3.76419 21.8764 3.51438 21.8764H2.83737C2.72615 21.8764 2.61911 21.8344 2.53622 21.7593C2.29287 21.7195 1.96985 21.6233 1.77117 21.3043C1.58277 21.0013 1.54817 20.5819 1.54817 19.8647C1.54817 19.21 1.70292 18.4565 1.98487 17.7371C1.93753 17.6065 1.94285 17.4637 2.00103 17.3375C2.27994 16.7278 2.63277 16.2074 3.02102 15.834C3.24726 15.6148 3.49061 15.4441 3.7444 15.3247C3.82692 15.0927 3.99194 14.9062 4.20069 14.8057C4.24841 14.4676 4.38054 14.1159 4.57979 13.7809C1.89683 14.8484 0 17.4669 0 20.5295C0 24.5401 3.25084 24.53 7.26065 24.53H14.7389C18.7491 24.53 22 24.5401 22 20.5295C21.9998 17.5277 20.1775 14.9534 17.579 13.8476L17.5795 13.8476ZM16.7236 21.4977C16.7236 21.592 16.6382 21.668 16.5331 21.668H15.4971V22.7038C15.4971 22.8095 15.4209 22.8946 15.327 22.8946H14.3047C14.2106 22.8946 14.1345 22.8093 14.1345 22.7038V21.668H13.0986C12.9931 21.668 12.9077 21.592 12.9077 21.4977V20.4756C12.9077 20.3813 12.9931 20.3052 13.0986 20.3052H14.1345V19.2695C14.1345 19.1638 14.2106 19.0786 14.3047 19.0786H15.327C15.4207 19.0786 15.4971 19.164 15.4971 19.2695V20.3052H16.5331C16.6388 20.3052 16.7236 20.3813 16.7236 20.4756V21.4977Z" fill="#494D58"/>
<path d="M5.50829 6.7359C5.51209 6.78818 5.51665 6.84027 5.5216 6.89236C5.87198 10.8569 8.19107 13.9204 11.0009 13.9204C13.8101 13.9204 16.1298 10.8572 16.4802 6.89285C16.4857 6.84076 16.4892 6.78867 16.4935 6.73638C16.5192 6.56432 16.535 6.39018 16.5451 6.21357C16.5519 6.09284 16.5568 5.97154 16.5568 5.84892C16.5568 5.54739 16.535 5.251 16.4935 4.96146C16.0872 2.15245 13.7828 0 11.0006 0C8.21835 0 5.91405 2.15235 5.50813 4.96146C5.46612 5.25082 5.44482 5.54741 5.44482 5.84892C5.44482 5.97154 5.44977 6.09284 5.45604 6.21357C5.4665 6.39019 5.48304 6.56433 5.50813 6.73619L5.50829 6.7359ZM14.2972 11.1816C14.1122 10.5561 13.7107 10.0006 13.2192 9.56224L15.7526 7.40935C15.5461 8.88601 15.0259 10.195 14.2972 11.1817L14.2972 11.1816ZM7.57386 3.58274C7.57386 3.58274 9.17293 4.35918 11.0009 4.40916C12.8289 4.35935 14.428 3.58274 14.428 3.58274C15.3339 3.94035 15.1955 6.01149 15.0925 6.89709L12.5453 9.06181C12.0059 8.73613 11.4378 8.54809 10.973 8.54809C10.5142 8.54809 9.96401 8.73155 9.44115 9.04847L6.90878 6.8967C6.80554 6.01056 6.66752 3.94037 7.57381 3.58274H7.57386ZM8.7695 9.5507C8.28355 9.99064 7.88676 10.5501 7.70386 11.1806C6.97531 10.1939 6.45498 8.88509 6.24871 7.40843L8.7695 9.5507Z" fill="#494D58"/>
</svg>
