<svg width="21" height="25" viewBox="0 0 21 25" fill="none" xmlns="http://www.w3.org/2000/svg">
<path d="M10.5012 1.62537C9.45042 1.62537 8.59888 2.47851 8.59888 3.52767C8.59888 4.57842 9.45042 5.42996 10.5012 5.42996C11.5512 5.42996 12.4035 4.57842 12.4035 3.52767C12.4035 2.4776 11.5512 1.62537 10.5012 1.62537ZM10.5012 4.24266C10.1056 4.24266 9.78619 3.92311 9.78619 3.52767C9.78619 3.13225 10.1056 2.81268 10.5012 2.81268C10.8952 2.81268 11.2162 3.13222 11.2162 3.52767C11.2162 3.92326 10.8952 4.24266 10.5012 4.24266Z" fill="#494D58"/>
<path d="M7.96329 3.47183C7.99346 2.09367 9.11582 0.983095 10.5017 0.983095C11.8875 0.983095 13.0097 2.09367 13.04 3.47183C14.0047 3.4222 14.9625 3.29188 15.9026 3.0748L15.715 1.416C15.6894 1.18249 15.4893 0.923478 15.2713 0.839023C15.2713 0.839023 13.1038 0 10.502 0C7.90025 0 5.73265 0.839023 5.73265 0.839023C5.51468 0.923642 5.31456 1.18249 5.28904 1.416L5.10034 3.0748C6.04114 3.29117 6.99816 3.42148 7.96359 3.47183H7.96329Z" fill="#494D58"/>
<path d="M15.9867 3.81689C14.9839 4.04254 13.9649 4.1775 12.9372 4.22249C12.6333 5.28737 11.664 6.07232 10.5022 6.07232C9.34037 6.07232 8.37101 5.28755 8.06628 4.22267C7.03942 4.17697 6.01815 4.04273 5.0168 3.81708L4.79115 5.81791C4.76633 6.0498 4.92378 6.30723 5.14319 6.38862C5.14319 6.38862 6.93553 7.05485 10.5021 7.05485C14.068 7.05485 15.861 6.38862 15.861 6.38862C16.0804 6.30722 16.2378 6.0489 16.2123 5.81791L15.9867 3.81689Z" fill="#494D58"/>
<path d="M13.3025 15.2103C13.3025 15.2103 12.2392 16.4147 10.5021 16.4147C8.76494 16.4147 7.70166 15.2103 7.70166 15.2103V10.7905C7.70166 10.7905 9.92976 9.83899 10.5021 9.83899C11.076 9.83899 13.3025 10.7905 13.3025 10.7905V15.2103Z" fill="#494D58"/>
<path d="M16.6913 7.91229C16.375 7.31443 15.7777 6.98401 15.0115 6.98401V7.83555C15.4597 7.83555 15.7714 7.99604 15.9397 8.31093C16.1491 8.70653 16.0972 9.31064 15.8203 9.71765C15.6916 9.90849 15.466 10.1249 15.1193 10.0875L14.7137 10.0433L14.5926 10.8475C14.5685 11.0778 14.4182 12.2201 13.8171 13.2866V14.736C15.1285 13.3184 15.4015 11.2826 15.4365 10.9475L15.4411 10.9234C15.8685 10.8552 16.25 10.6023 16.5253 10.1959C16.9805 9.52542 17.0487 8.58641 16.6913 7.91232L16.6913 7.91229Z" fill="#494D58"/>
<path d="M7.18634 13.2853C6.58382 12.2144 6.43333 11.0649 6.40765 10.8207L6.28822 10.0436L5.88423 10.0879C5.54379 10.1275 5.31192 9.90951 5.18158 9.71796C4.90469 9.31075 4.85435 8.70591 5.06376 8.31124C5.23049 7.99633 5.5422 7.83586 5.99203 7.83586V6.98413C5.22421 6.98413 4.62868 7.31457 4.31216 7.91241C3.95459 8.58631 4.02296 9.52551 4.47889 10.1964C4.75417 10.602 5.13658 10.8557 5.56306 10.9239L5.56466 10.9378C5.60108 11.2782 5.87493 13.3171 7.18705 14.7363L7.18722 13.2853L7.18634 13.2853Z" fill="#494D58"/>
<path d="M20.6662 20.2798C20.1272 16.2323 15.039 15.5978 15.039 15.5978C13.2669 17.4412 11.1296 17.584 10.5005 17.584C9.87 17.584 7.7349 17.4413 5.96202 15.5978C5.96202 15.5978 0.872314 16.2322 0.334872 20.2798C-0.0637632 23.2772 0.00443167 24.8167 0.00443167 24.8167H20.9953C20.9953 24.8167 21.0651 23.278 20.6665 20.2798H20.6662ZM17.5842 21.8099C17.5842 21.972 17.4523 22.1037 17.2904 22.1037H13.4461C13.2841 22.1037 13.1523 21.9718 13.1523 21.8099V20.8041C13.1523 20.6436 13.2842 20.5103 13.4461 20.5103H17.2904C17.4525 20.5103 17.5842 20.6436 17.5842 20.8041V21.8099Z" fill="#494D58"/>
</svg>
