<svg width="21" height="28" viewBox="0 0 21 28" fill="none" xmlns="http://www.w3.org/2000/svg">
<path d="M10.0535 11.6863C7.04001 11.6863 4.93848 8.29923 4.93848 5.25872C4.93848 2.21197 7.08997 0 10.0535 0C13.0179 0 15.1685 2.2111 15.1685 5.25872C15.1677 8.29944 13.0678 11.6863 10.0535 11.6863ZM10.0535 1.28284C7.76186 1.28284 6.22204 2.88062 6.22204 5.2597C6.22204 7.90304 8.08407 10.4038 10.0535 10.4038C12.0239 10.4038 13.8868 7.90386 13.8868 5.2597C13.8868 2.88062 12.346 1.28284 10.0535 1.28284Z" fill="#494D58"/>
<path d="M2.51367 14.7218V14.5318C2.51367 12.8194 3.50684 11.9534 5.46492 11.9534C5.64861 11.9534 5.80712 11.962 5.92595 11.9717C6.42384 12.5457 7.8911 13.9815 10.0813 13.9815C12.2714 13.9815 13.7379 12.5457 14.2366 11.9717C14.3556 11.9612 14.5131 11.9534 14.6976 11.9534C16.6557 11.9534 17.6489 12.8196 17.6489 14.5318V14.7218H18.9317V14.5318C18.9317 12.1135 17.348 10.6698 14.6976 10.6698C14.1796 10.6698 13.8157 10.7292 13.8007 10.7328L13.5409 10.7757L13.3868 10.9874C13.3727 11.005 12.1145 12.6998 10.0811 12.6998C8.06595 12.6998 6.78677 11.0034 6.77532 10.9874L6.62044 10.7757L6.36142 10.7328C6.34571 10.7294 5.97995 10.6698 5.46452 10.6698C2.81417 10.6698 1.23047 12.1135 1.23047 14.5318V14.7218H2.51367Z" fill="#494D58"/>
<path d="M18.9416 15.4193H1.22154C0.547012 15.4193 0 15.968 0 16.6425V26.7784C0 27.4529 0.546806 27.9999 1.22154 27.9999H18.9416C19.6161 27.9999 20.1631 27.4531 20.1631 26.7784L20.1629 16.6435C20.1629 15.968 19.6161 15.4194 18.9415 15.4194L18.9416 15.4193ZM15.2894 23.4391C14.0251 22.5064 12.3617 21.9972 10.6589 21.901V23.6291C12.128 23.7209 13.5576 24.1453 14.6366 24.9415C15.1853 25.3465 14.6541 26.2724 14.0984 25.8645C13.1552 25.1689 11.925 24.7944 10.6589 24.7026V26.6677C10.6589 27.3563 9.58965 27.3563 9.58965 26.6677V24.6973C8.2948 24.7761 7.02954 25.1531 6.06436 25.8645C5.50869 26.2732 4.97756 25.3465 5.52617 24.9415C6.6269 24.1296 8.09154 23.7042 9.59043 23.6238V21.8976C7.85787 21.9797 6.1596 22.4907 4.87341 23.4393C4.31773 23.8496 3.78577 22.9213 4.33361 22.5163C5.75536 21.4671 7.65508 20.908 9.59027 20.8259V19.1302C8.17012 19.1984 6.779 19.5213 5.68008 20.1285C5.07728 20.4637 4.53728 19.5388 5.14029 19.2055C6.40637 18.5046 7.98399 18.1372 9.59048 18.0671V16.7668C9.59048 16.0782 10.6598 16.0782 10.6598 16.7668V18.0671C12.2662 18.1372 13.8439 18.5046 15.1089 19.2055C15.7117 19.5388 15.1728 20.4637 14.5699 20.1285C13.4711 19.5221 12.0807 19.1984 10.6598 19.1302V20.8285C12.5663 20.9221 14.4291 21.4829 15.8298 22.5155C16.3766 22.9214 15.8447 23.8497 15.289 23.4392L15.2894 23.4391Z" fill="#494D58"/>
</svg>
