<svg width="22" height="22" viewBox="0 0 22 22" fill="none" xmlns="http://www.w3.org/2000/svg">
<path d="M18.043 5.30691V15.9205C18.043 16.7016 17.6132 17.3798 16.9817 17.7481V15.9206H9.55223V14.8593H13.7977C15.5532 14.8593 16.9818 13.4308 16.9818 11.6752V3.18411C16.9818 1.42857 15.5532 0 13.7977 0H3.18411C1.42857 0 0 1.42857 0 3.18411V11.6752C0 13.4308 1.42857 14.8593 3.18411 14.8593H7.42953V15.9206H9.09245e-05V21.2276H16.9819V20.0155C18.8074 19.5411 20.166 17.8927 20.166 15.9207V5.30673C20.166 4.7209 20.6425 4.24542 21.2273 4.24542V2.12262C19.4717 2.12262 18.0432 3.55119 18.0432 5.30673L18.043 5.30691ZM8.58299 10.6412C8.41206 10.6041 8.29532 10.6041 8.12348 10.6412L7.55452 10.7686L2.34623 5.56031L3.34395 4.82896C6.27965 2.67755 10.4286 2.67755 13.3634 4.82896L14.3611 5.56031L9.15195 10.7686L8.58299 10.6412Z" fill="#494D58"/>
<path d="M5.68444 5.89826L8.27953 8.49226C8.30494 8.4912 8.32928 8.4912 8.3538 8.4912C8.37814 8.4912 8.40266 8.4912 8.42807 8.49226L11.0232 5.89826C9.35792 5.12034 7.34971 5.12034 5.68433 5.89826H5.68444Z" fill="#494D58"/>
</svg>
