<svg width="27" height="25" viewBox="0 0 27 25" fill="none" xmlns="http://www.w3.org/2000/svg">
<path d="M23.8343 9.51052C23.6675 10.0666 23.3059 10.901 22.8889 11.8186C23.1391 12.4304 23.1114 13.2368 22.6664 14.1268C22.5552 14.3493 22.4162 14.5717 22.2493 14.7942C21.8323 15.3503 21.2759 15.9622 20.6642 16.6296C20.6364 16.6853 20.5807 16.7131 20.5251 16.7687C20.386 16.9356 20.1358 16.9912 19.941 16.8521C19.7185 16.7131 19.6628 16.3794 19.8576 16.1847C19.9132 16.129 19.941 16.0735 19.9967 16.0179C20.7753 15.1558 21.5262 14.3492 21.8598 13.7097C22.4439 12.5418 22.0546 11.7909 21.4983 11.4573C21.0255 11.1791 20.386 11.1791 20.0244 11.7075C19.524 12.4584 18.8287 13.2648 18.1335 14.0156C17.3549 14.9056 16.5763 15.8511 16.1313 16.574C15.6308 17.4084 14.9911 19.3549 14.8799 21.4406C14.8243 22.4417 14.7965 23.6096 14.7688 24.3049C14.7688 24.6664 15.047 24.9444 15.4083 24.9444H19.4962C19.8578 24.9444 20.1358 24.6662 20.1358 24.3049V23.1369C20.1358 22.8587 20.2749 22.6085 20.4973 22.4417C21.9434 21.4406 23.306 20.2449 24.0846 19.3549C25.7532 17.4084 26.365 11.6797 26.4484 9.95557C26.5039 8.31491 24.3348 7.92559 23.8343 9.51059L23.8343 9.51052Z" fill="#494D58"/>
<path d="M10.2915 16.6018C9.84651 15.8509 9.06787 14.9332 8.28927 14.0434C7.62181 13.2648 6.89884 12.4862 6.39838 11.7353C6.03681 11.2069 5.39727 11.2069 4.92452 11.4851C4.3684 11.8187 3.95112 12.5973 4.56295 13.7375C4.86885 14.3493 5.61973 15.1836 6.42613 16.0456C6.4818 16.1013 6.50954 16.1568 6.56521 16.2125C6.75997 16.4072 6.7043 16.7409 6.4818 16.8799C6.28705 16.9911 6.03682 16.9356 5.89772 16.7965C5.84205 16.7408 5.81431 16.7131 5.75864 16.6574C5.14685 15.99 4.59067 15.3781 4.17344 14.822C4.00662 14.5995 3.86754 14.377 3.75639 14.1545C3.28367 13.2646 3.28367 12.4582 3.5339 11.8464C3.11685 10.9287 2.75525 10.0944 2.58845 9.53831C2.08799 7.92555 -0.0810831 8.31487 0.00234291 10.039C0.0857541 11.7353 0.69756 17.4639 2.36618 19.4105C3.11706 20.3005 4.5075 21.4961 5.9534 22.4973C6.1759 22.6641 6.31497 22.9143 6.31497 23.1925V24.3604C6.31497 24.722 6.59314 25 6.95452 25H11.0424C11.404 25 11.682 24.7218 11.682 24.3604C11.6542 23.6652 11.6263 22.4973 11.5708 21.4961C11.404 19.4105 10.7643 17.436 10.2915 16.6017L10.2915 16.6018Z" fill="#494D58"/>
<path d="M19.4128 6.20134C19.4128 2.78092 16.6319 0 13.2115 0C9.791 0 7.01013 2.78087 7.01013 6.20134C7.01013 9.62181 9.791 12.4027 13.2115 12.4027C16.6319 12.4027 19.4128 9.62181 19.4128 6.20134ZM15.2137 7.00769H14.0181V8.20336C14.0181 8.64835 13.6565 9.00972 13.2117 9.00972C12.7667 9.00972 12.4054 8.64814 12.4054 8.20336V7.00769H11.2097C10.7647 7.00769 10.4033 6.64612 10.4033 6.20134C10.4033 5.75635 10.7649 5.39498 11.2097 5.39498H12.4054V4.19931C12.4054 3.75433 12.7669 3.39296 13.2117 3.39296C13.6567 3.39296 14.0181 3.75453 14.0181 4.19931V5.39498H15.2137C15.6587 5.39498 16.0201 5.75656 16.0201 6.20134C16.0201 6.64613 15.6587 7.00769 15.2137 7.00769Z" fill="#494D58"/>
</svg>
