<svg width="163" height="84" viewBox="0 0 163 84" fill="none" xmlns="http://www.w3.org/2000/svg">
<path d="M47.2158 71.1612C48.0349 71.2162 48.8484 71.2217 49.6453 71.3344C54.0962 71.9554 56.8235 76.1272 55.5991 80.45C55.4061 81.1288 55.1165 81.7912 54.7746 82.4095C54.4657 82.9701 53.837 83.1543 53.2303 82.9949C52.6429 82.841 52.2734 82.4397 52.2072 81.8654C52.1686 81.5246 52.3065 81.1508 52.4057 80.8046C52.5574 80.2632 52.8083 79.7438 52.9021 79.1941C53.3433 76.5944 51.708 74.448 49.069 74.1567C48.465 74.0908 47.8501 74.1457 47.1662 74.1457C47.1496 74.481 47.1248 74.7393 47.1248 75.0004C47.1193 76.8664 47.1248 78.7352 47.1055 80.6012C47.1028 80.9392 47.0586 81.2937 46.9401 81.607C46.7167 82.1896 46.1486 82.4864 45.5116 82.4287C44.9215 82.3765 44.4416 81.9973 44.2982 81.4092C44.2238 81.1041 44.2045 80.7771 44.2045 80.461C44.2017 78.988 44.2127 77.5123 44.2183 76.0392C44.2183 75.7727 44.2183 75.5088 44.2183 75.1983C43.9646 75.1983 43.7743 75.1763 43.5895 75.201C40.0239 75.671 36.4389 73.357 35.7523 69.1303C35.4737 67.41 35.7385 65.7528 36.461 64.1699C36.5713 63.9253 36.7064 63.6834 36.8801 63.4801C37.3021 62.9854 37.986 62.8645 38.5623 63.142C39.1304 63.4169 39.4558 64.0379 39.3207 64.6728C39.2545 64.9806 39.1138 65.2746 38.998 65.5714C38.4327 67.028 38.3417 68.49 38.9925 69.9438C39.8281 71.8153 41.8191 72.7579 43.7577 72.244C44.1024 72.1533 44.2458 72.0022 44.2458 71.6394C44.2541 67.0692 44.2762 62.499 44.29 57.9288C44.29 57.8573 44.2624 57.7858 44.2376 57.6759C44.1466 57.6759 44.0528 57.6567 43.9673 57.6787C39.9935 58.668 35.209 56.2002 33.8136 51.4018C33.0249 48.6921 33.4331 46.1501 35.0821 43.8334C35.2642 43.5778 35.4848 43.3305 35.733 43.1381C36.2542 42.7423 36.9546 42.7671 37.451 43.1518C37.9694 43.5531 38.1514 44.2621 37.8674 44.8749C37.7653 45.0948 37.6054 45.2899 37.462 45.4878C35.9811 47.5462 35.9453 49.7227 37.1366 51.869C38.3307 54.0236 40.2169 55.1476 42.7484 54.9415C43.2613 54.9003 43.755 54.6062 44.29 54.4193C44.29 48.475 44.29 42.6104 44.29 36.6524C44.0776 36.7541 43.8873 36.831 43.7108 36.93C41.2372 38.304 38.5926 38.9526 35.7578 38.7602C32.5644 38.5431 29.7792 37.3752 27.5151 35.0887C27.1897 34.7616 26.8809 34.6352 26.4204 34.649C23.7951 34.7369 21.2663 34.3 18.8809 33.165C17.8247 32.6648 16.8706 32.019 16.0709 31.1615C15.5442 30.5982 15.1029 29.9743 14.8685 29.2378C14.7444 28.8448 14.5349 28.6552 14.1267 28.5425C12.3453 28.0589 10.7238 27.2454 9.32566 26.0279C7.9358 24.8188 6.88513 23.3705 6.53215 21.5429C6.41082 20.9108 6.13505 20.6058 5.59179 20.3227C3.40222 19.1905 1.71729 17.5553 0.771414 15.2386C0.603197 14.8264 0.473587 14.4087 0.583894 13.9497C0.763141 13.1857 1.23194 12.7515 2.00684 12.6691C2.20264 12.6471 2.40119 12.6553 2.59698 12.6526C13.0761 12.5591 23.5524 12.4685 34.0315 12.375C34.1804 12.375 34.3266 12.3695 34.4755 12.3723C35.7054 12.386 36.3203 13.0071 36.3838 14.23C36.4251 15.0353 36.4527 15.857 36.6264 16.6402C37.3986 20.1166 40.4044 22.8071 43.937 23.2413C44.0556 23.255 44.1796 23.244 44.2955 23.244C44.4527 22.7082 44.5299 16.5797 44.392 15.2496C42.0425 14.7027 40.2031 13.4193 39.1028 11.207C38.3169 9.62959 38.1349 7.96695 38.543 6.25758C39.3896 2.71519 42.5058 0.535884 45.7984 0.549625C49.3337 0.563366 52.3809 3.09718 53.0427 6.46644C53.4316 8.44238 53.0814 10.2782 52.0031 11.971C51.0655 13.4441 50.1913 14.0569 47.3675 15.2688C47.3675 17.8356 47.3675 20.4299 47.3675 23.1066C47.6846 23.0242 47.9714 22.972 48.2389 22.8785C52.3451 21.433 54.7966 18.5859 55.4971 14.285C55.7397 12.79 56.2003 12.3695 57.7473 12.3833C66.0313 12.4602 74.3153 12.5399 82.5993 12.6141C84.844 12.6333 87.086 12.6443 89.3307 12.6608C89.5513 12.6636 89.7775 12.6553 89.9953 12.6773C90.9688 12.7845 91.5865 13.5787 91.4265 14.5461C91.3741 14.8566 91.2666 15.1672 91.1397 15.4557C90.158 17.69 88.4758 19.2564 86.3414 20.3777C86.1043 20.5041 85.8643 20.625 85.6355 20.7405C85.2466 23.5244 83.6748 25.4783 81.4218 26.9678C80.3049 27.7071 79.0833 28.232 77.7872 28.5728C77.47 28.6552 77.2798 28.7899 77.1722 29.1169C76.72 30.4827 75.7851 31.4748 74.6324 32.2828C72.8592 33.525 70.8544 34.1873 68.731 34.4676C67.6363 34.6105 66.5222 34.6132 65.4136 34.6517C65.102 34.6627 64.8565 34.7067 64.6304 34.9458C60.9103 38.9086 54.6505 39.92 49.3971 37.4906C48.7105 37.1745 48.0542 36.7925 47.293 36.3941C47.293 42.1103 47.293 47.7605 47.293 53.463C47.5219 53.463 47.7398 53.4657 47.9549 53.463C52.8249 53.4025 56.9917 57.0081 57.5791 61.8174C57.7335 63.0788 57.5791 64.3183 57.1599 65.522C57.1268 65.6154 57.0882 65.7061 57.0469 65.794C56.6829 66.5745 55.9769 66.9125 55.2434 66.6625C54.4712 66.3986 54.0934 65.6704 54.3554 64.8239C54.6367 63.9198 54.7746 63.0129 54.6725 62.0648C54.3416 59.006 51.413 56.1727 47.7894 56.3513C47.6212 56.3595 47.4557 56.4118 47.2131 56.4585C47.2158 61.3667 47.2158 66.2667 47.2158 71.1612ZM73.7693 29.2433C73.7527 29.1938 73.7334 29.1444 73.7169 29.0977C73.4328 29.0757 73.146 29.0564 72.862 29.029C70.7827 28.8338 68.8607 28.2127 67.1895 26.9294C66.3153 26.2588 66.1389 25.4069 66.6959 24.7033C67.2392 24.019 68.0582 23.9751 68.9213 24.6236C69.7403 25.242 70.6476 25.6734 71.6404 25.9043C74.4587 26.5611 77.1253 26.1406 79.6183 24.6896C80.6772 24.074 81.5624 23.2633 82.1691 22.1833C82.2435 22.0513 82.2684 21.8919 82.3345 21.6803C82.1057 21.7078 81.9623 21.7298 81.8189 21.7435C79.5934 21.9607 77.4397 21.6941 75.3935 20.7597C74.9937 20.5756 74.5938 20.364 74.2491 20.0974C73.7472 19.7099 73.6121 19.0641 73.8382 18.498C74.0533 17.9593 74.5855 17.5718 75.1619 17.6075C75.4487 17.6268 75.752 17.7092 76.003 17.8466C77.7789 18.825 79.6844 19.0751 81.6617 18.836C83.7768 18.5804 85.6437 17.7559 87.1687 16.239C87.3452 16.0631 87.4941 15.857 87.7726 15.5272C77.8203 15.442 68.0692 15.3595 58.3347 15.2771C56.8869 21.2104 53.2027 24.772 47.293 26.1214C47.293 26.3577 47.293 26.5748 47.293 26.7947C47.2875 28.3419 47.2958 29.8919 47.2737 31.4391C47.2599 32.2608 47.5688 32.8984 48.2113 33.4041C50.3182 35.0667 52.7201 35.9076 55.3978 35.9131C57.3337 35.9159 59.1537 35.4267 60.8 34.3797C60.9462 34.2862 61.0675 34.1516 61.2054 34.0306C60.4415 33.6706 59.7383 33.3766 59.0682 33.0166C58.1472 32.5191 57.3474 31.8651 56.7628 30.9884C56.2664 30.2437 56.3878 29.4357 57.0358 28.9548C57.6453 28.5013 58.4946 28.5838 59.0158 29.2406C59.8514 30.2959 60.9655 30.8785 62.2175 31.2412C64.5835 31.9283 66.9717 31.9695 69.3736 31.4226C70.6807 31.1231 71.9272 30.6779 73.0247 29.8891C73.2867 29.6995 73.5211 29.4604 73.7693 29.2433ZM9.6483 21.8013C9.7393 21.9799 9.83031 22.1942 9.95164 22.3921C10.4756 23.2468 11.1926 23.9174 12.0199 24.467C13.7048 25.591 15.58 26.1379 17.5931 26.1983C19.642 26.2588 21.5614 25.8246 23.2104 24.5247C23.307 24.4477 23.4145 24.3845 23.5221 24.3296C24.148 24.019 24.8237 24.1509 25.2677 24.6649C25.7172 25.187 25.7309 25.94 25.2732 26.4924C25.1022 26.6985 24.8871 26.8716 24.672 27.0338C23.0229 28.2567 21.1394 28.8448 19.1126 29.0317C18.8285 29.0592 18.5445 29.0729 18.1253 29.1032C18.5914 29.6583 19.0464 29.9771 19.5317 30.2574C20.9188 31.0571 22.4355 31.4501 24.0074 31.6837C25.4138 31.8926 26.8175 31.8293 28.2018 31.6095C30.0522 31.3154 31.8143 30.7768 33.0277 29.1884C33.0718 29.1306 33.1297 29.0812 33.1849 29.0345C33.695 28.6057 34.4451 28.5755 34.9663 28.9603C35.4986 29.3532 35.7192 30.0678 35.4131 30.6669C35.2145 31.0544 34.9332 31.4116 34.6327 31.7304C33.7557 32.662 32.6554 33.2611 31.4779 33.7311C31.26 33.819 31.0422 33.9097 30.703 34.0499C31.0229 34.2587 31.2352 34.4126 31.4613 34.5445C35.38 36.8503 40.5782 36.1605 44.0252 33.2254C44.301 32.9918 44.3837 32.7225 44.3837 32.3872C44.3892 30.4965 44.4003 28.603 44.4058 26.7122C44.4058 26.5693 44.3782 26.4237 44.3617 26.2753C38.0053 25.3272 34.3541 21.7106 33.4083 15.2881C23.7592 15.3705 14.0826 15.453 4.406 15.5354C4.38394 15.5849 4.36188 15.6344 4.33982 15.6838C4.56319 15.9312 4.77001 16.195 5.01269 16.4258C7.70967 19.0091 12.348 19.6879 15.6958 18.0033C15.9578 17.8714 16.2253 17.7312 16.5066 17.657C17.1381 17.4921 17.7724 17.7779 18.0812 18.3331C18.3928 18.8882 18.3073 19.5725 17.833 20.0259C17.64 20.2101 17.4028 20.3557 17.1684 20.4821C15.6462 21.3011 14.0082 21.7216 12.2874 21.793C11.4325 21.8315 10.5749 21.8013 9.6483 21.8013ZM45.7598 3.47918C43.4516 3.3665 41.2014 5.34244 41.2372 8.02466C41.2703 10.5118 43.3496 12.5289 45.8094 12.4877C48.3189 12.4465 50.3099 10.4211 50.2851 7.93947C50.2603 5.40565 48.261 3.43521 45.7598 3.47918Z" fill="#29DFED"/>
<path d="M53.6551 83.6022C53.4731 83.6022 53.2828 83.5775 53.0926 83.528C52.2873 83.3164 51.7523 82.72 51.6613 81.9286C51.6145 81.5328 51.7275 81.1591 51.8268 80.8293C51.8433 80.7716 51.8627 80.7139 51.8764 80.6562C51.9399 80.4281 52.0198 80.2082 52.0943 79.9994C52.2046 79.6861 52.3121 79.392 52.359 79.1035C52.5465 77.9987 52.3149 76.9489 51.7055 76.1492C51.0933 75.3412 50.1364 74.83 49.0112 74.7064C48.6417 74.6651 48.2446 74.6761 47.8282 74.6871C47.7841 74.6871 47.7372 74.6899 47.6903 74.6899C47.6848 74.7998 47.6793 74.9015 47.6793 75.0059C47.6765 75.6407 47.6765 76.2783 47.6765 76.9132C47.6738 78.1471 47.6738 79.3783 47.6627 80.6122C47.6572 81.0684 47.591 81.4724 47.4614 81.8077C47.1581 82.6019 46.3777 83.0581 45.4704 82.9811C44.6321 82.9069 43.9647 82.3435 43.7717 81.5438C43.6752 81.1536 43.6641 80.7633 43.6614 80.4665C43.6586 79.3948 43.6641 78.3257 43.6697 77.2539L43.6752 76.0392C43.6752 75.9431 43.6752 75.8469 43.6752 75.7479C43.6724 75.7479 43.6697 75.7479 43.6697 75.7479C39.5442 76.2948 35.9096 73.4862 35.2174 69.221C34.9279 67.4429 35.1816 65.6676 35.9675 63.9445C36.122 63.6065 36.2847 63.3399 36.4667 63.1256C37.0485 62.4468 37.9889 62.2544 38.8107 62.6501C39.6187 63.0404 40.0544 63.9198 39.8669 64.791C39.8089 65.0685 39.7069 65.3159 39.6076 65.5522C39.5773 65.6264 39.547 65.6979 39.5194 65.7721C38.9623 67.2066 38.9568 68.501 39.5028 69.7212C40.2281 71.3454 41.9213 72.1643 43.6228 71.7136C43.6586 71.7054 43.6834 71.6971 43.7 71.6889C43.7 71.6751 43.7028 71.6586 43.7028 71.6394C43.7083 68.5175 43.7221 65.3928 43.7331 62.2709L43.7469 58.2943C39.8117 59.0665 34.8121 56.7773 33.2926 51.5558C32.4515 48.6592 32.9038 45.955 34.6411 43.5173C34.8783 43.1848 35.1347 42.9127 35.4077 42.7039C36.1109 42.1652 37.0954 42.1735 37.7986 42.7204C38.5294 43.2865 38.7666 44.2703 38.3777 45.1085C38.2729 45.3339 38.1323 45.5263 38.0054 45.6966L37.9199 45.8121C36.6073 47.6396 36.5108 49.5881 37.6304 51.608C38.7583 53.6416 40.468 54.5842 42.7128 54.3974C42.972 54.3754 43.267 54.2517 43.5787 54.117C43.6338 54.0923 43.689 54.0703 43.7469 54.0456V37.5428C41.2016 38.9059 38.5046 39.4995 35.7276 39.3099C32.3136 39.0763 29.4209 37.7874 27.1292 35.4762C26.9086 35.2536 26.7487 35.1904 26.4453 35.2014C23.6188 35.2976 20.9935 34.7809 18.6495 33.6651C17.4499 33.0935 16.4764 32.3982 15.6739 31.5408C15.0149 30.8373 14.5819 30.1392 14.3503 29.4082C14.2868 29.2076 14.2345 29.1444 13.9918 29.0784C12.0697 28.5563 10.382 27.6714 8.97285 26.4484C7.31826 25.0111 6.3448 23.4419 6.0001 21.6529C5.91737 21.2187 5.77673 21.04 5.34653 20.8174C2.91704 19.5615 1.21005 17.756 0.269692 15.453C0.0738984 14.9721 -0.0888032 14.4417 0.0545948 13.8316C0.291753 12.8257 0.950832 12.2376 1.95738 12.1304C2.13662 12.1112 2.30484 12.1112 2.46754 12.1112H2.60267L34.1585 11.8336C34.2688 11.8309 34.3791 11.8309 34.4922 11.8309C35.9951 11.8474 36.8665 12.6938 36.9437 14.2108L36.9548 14.4444C36.9906 15.1452 37.0265 15.868 37.1726 16.5303C37.8731 19.6934 40.5894 22.197 43.8186 22.6779C43.9096 21.3121 43.962 17.2695 43.8792 15.6921C41.4553 15.0298 39.6876 13.609 38.6176 11.4571C37.7793 9.76976 37.5752 7.97795 38.0137 6.13667C38.8686 2.52008 42.0564 0 45.7655 0C45.7765 0 45.7875 0 45.7986 0C49.5876 0.016489 52.8609 2.69046 53.5807 6.36202C53.9943 8.46713 53.6193 10.4541 52.4666 12.2651C51.5124 13.7656 50.5886 14.4609 47.9164 15.6289V22.4031C47.9633 22.3894 48.0102 22.3756 48.0543 22.3591C52.0281 20.9576 54.2839 18.2891 54.9512 14.1971C55.2408 12.4135 55.9412 11.8062 57.753 11.8336C61.895 11.8721 66.037 11.9106 70.179 11.9491C74.321 11.9875 78.463 12.026 82.605 12.0645C84.0527 12.0782 85.5033 12.0865 86.951 12.0947L89.4826 12.1085C89.6673 12.1085 89.8549 12.1085 90.0562 12.1304C90.6821 12.1991 91.2254 12.4959 91.5784 12.9631C91.9314 13.4276 92.0692 14.0212 91.9672 14.6368C91.9148 14.9583 91.8073 15.2991 91.6391 15.6783C90.6656 17.8961 89.0138 19.5945 86.5953 20.8669C86.4409 20.9466 86.2864 21.0263 86.1348 21.1032C85.6963 23.6838 84.2513 25.7559 81.7225 27.4268C80.5864 28.177 79.3096 28.7404 77.9252 29.1032C77.7405 29.1526 77.7294 29.1829 77.6936 29.2873C77.2524 30.6202 76.3534 31.7469 74.947 32.7308C73.2041 33.9509 71.1911 34.6957 68.8002 35.009C67.8901 35.1299 66.9663 35.1546 66.0756 35.1794C65.8605 35.1849 65.6454 35.1904 65.4303 35.1986C65.1628 35.2069 65.1049 35.2398 65.0305 35.3195C61.1725 39.4281 54.6479 40.5246 49.1601 37.988C48.7162 37.7819 48.2887 37.5538 47.842 37.312V52.9133C47.8778 52.9133 47.9109 52.9133 47.9468 52.9133C53.1312 52.8556 57.5021 56.6481 58.1253 61.7487C58.2852 63.0596 58.1363 64.387 57.6785 65.6979C57.6399 65.8078 57.5958 65.9177 57.5462 66.0221C57.0636 67.0555 56.0653 67.5199 55.0643 67.1791C53.9888 66.8136 53.4814 65.7748 53.8289 64.6563C54.1184 63.7274 54.2122 62.9222 54.1239 62.1197C53.8344 59.4595 51.2339 56.7251 47.8172 56.8982C47.8006 56.8982 47.7841 56.9009 47.7648 56.9037V70.6391C47.8503 70.6446 47.933 70.6473 48.0185 70.6501C48.5755 70.6775 49.1519 70.705 49.72 70.7847C52.0309 71.1063 53.9778 72.3155 55.2077 74.1897C56.4404 76.0695 56.7658 78.345 56.1287 80.5957C55.9385 81.2718 55.6434 81.9698 55.2573 82.6706C54.9319 83.2697 54.3335 83.6022 53.6551 83.6022ZM48.3963 73.5769C48.6417 73.5769 48.8844 73.5851 49.1298 73.6126C50.561 73.7692 51.7882 74.4343 52.5852 75.4869C53.3794 76.5339 53.6827 77.8833 53.4455 79.2876C53.3794 79.6723 53.2525 80.0268 53.1312 80.3704C53.0595 80.5737 52.9905 80.7661 52.9354 80.9557C52.9188 81.0189 52.8995 81.0821 52.8802 81.1453C52.8085 81.3844 52.7341 81.6345 52.7534 81.8049C52.792 82.1484 53.0016 82.371 53.3683 82.4672C53.6827 82.5497 54.0908 82.5084 54.2894 82.1484C54.6369 81.5191 54.8961 80.898 55.067 80.3044C55.6158 78.3642 55.3373 76.4102 54.2839 74.7998C53.2332 73.1949 51.5593 72.1588 49.5683 71.8812C49.0471 71.8098 48.5231 71.7823 47.9661 71.7576C47.7041 71.7438 47.4421 71.7329 47.1774 71.7136L46.6645 71.6779V56.0078L47.1112 55.9226C47.1884 55.9089 47.2546 55.8924 47.318 55.8786C47.467 55.8457 47.6048 55.8154 47.7648 55.8072C51.8047 55.6038 54.8795 58.8522 55.2215 62.0098C55.3235 62.9524 55.2132 63.928 54.8823 64.9888C54.7141 65.533 54.9209 65.9754 55.42 66.1458C56.0874 66.3739 56.4293 65.816 56.5452 65.5659C56.5782 65.4945 56.6113 65.4203 56.6361 65.3461C57.036 64.1946 57.1684 63.0321 57.0305 61.8889C56.479 57.3819 52.6403 54.0181 48.0764 54.0181C48.0378 54.0181 47.9992 54.0181 47.9606 54.0181C47.8117 54.0209 47.6627 54.0209 47.5111 54.0181H46.7417V35.4872L47.5497 35.9104C47.7979 36.0396 48.035 36.1687 48.2667 36.2951C48.7355 36.548 49.1795 36.7898 49.629 36.9959C54.6892 39.3374 60.6927 38.3398 64.228 34.5748C64.5947 34.1845 65.0056 34.1186 65.3972 34.1048C65.6151 34.0966 65.8302 34.0911 66.048 34.0856C66.9139 34.0636 67.8074 34.0389 68.6595 33.9262C70.8712 33.6349 72.7215 32.9534 74.3155 31.8376C75.5371 30.9829 76.2789 30.065 76.6484 28.9493C76.858 28.3199 77.3186 28.1331 77.6467 28.0479C78.9152 27.7153 80.0817 27.2014 81.1158 26.5171C83.4571 24.9699 84.7559 23.0572 85.0896 20.6718L85.1282 20.3887L85.5943 20.1496C85.7542 20.0672 85.9197 19.9847 86.0824 19.8968C88.272 18.7425 89.7611 17.2201 90.6325 15.2386C90.7621 14.9446 90.8448 14.689 90.8807 14.4609C90.9331 14.1421 90.8697 13.8535 90.7015 13.6309C90.5332 13.4083 90.2575 13.2627 89.9348 13.227C89.7969 13.2132 89.6453 13.2132 89.4881 13.2132H89.3281L86.9483 13.1995C85.4978 13.1912 84.0472 13.183 82.5967 13.1693C78.4547 13.1308 74.3127 13.0923 70.1707 13.0538C66.0287 13.0154 61.8867 12.9769 57.7447 12.9384C56.4872 12.9247 56.2473 13.128 56.0433 14.3784C55.318 18.8415 52.7534 21.8755 48.4266 23.4007C48.217 23.4749 48.013 23.5216 47.7979 23.5738C47.7041 23.5958 47.6076 23.6178 47.5083 23.6453L46.8189 23.8239V14.9088L47.1526 14.7659C49.8937 13.5897 50.6741 13.0401 51.54 11.6797C52.5521 10.0913 52.8664 8.42041 52.5052 6.57363C51.8792 3.41598 49.0609 1.11301 45.7958 1.09927C45.7848 1.09927 45.7765 1.09927 45.7655 1.09927C42.5694 1.09927 39.8227 3.27308 39.0782 6.39225C38.7004 7.97795 38.8741 9.51968 39.5966 10.9735C40.5701 12.9302 42.2246 14.1943 44.5163 14.7247L44.8996 14.8127L44.9409 15.2029C45.0761 16.5055 45.0264 22.7356 44.8251 23.4117L44.7093 23.8047H44.2956C44.2653 23.8047 44.235 23.8047 44.2046 23.8074C44.1109 23.8102 43.9951 23.8157 43.871 23.7992C40.104 23.3347 36.9051 20.4437 36.0889 16.7694C35.9207 16.0164 35.8848 15.2441 35.8462 14.4994L35.8352 14.2685C35.7855 13.3286 35.3912 12.9412 34.4729 12.9329C34.3708 12.9329 34.2688 12.9329 34.1668 12.9357H34.0399L2.45927 13.2132C2.32139 13.2132 2.18626 13.2132 2.06768 13.227C1.5327 13.2847 1.25142 13.543 1.12181 14.0871C1.05287 14.3812 1.13284 14.6698 1.28451 15.0408C2.13387 17.1239 3.62851 18.6931 5.84843 19.8446C6.57369 20.2211 6.92943 20.6828 7.07558 21.4468C7.37341 22.9857 8.22828 24.3516 9.68984 25.6212C10.9721 26.7342 12.5137 27.5422 14.2731 28.0204C14.8687 28.1825 15.2134 28.5068 15.3954 29.0784C15.5802 29.6583 15.9221 30.2052 16.4737 30.796C17.1796 31.5518 18.0455 32.1674 19.1183 32.6758C21.3327 33.7283 23.7153 34.1955 26.404 34.1048C27.0134 34.0856 27.4767 34.2697 27.9097 34.7067C30.0055 36.82 32.6611 38.0018 35.7993 38.2161C38.4467 38.3947 41.0168 37.8039 43.4463 36.4545C43.5842 36.3776 43.7276 36.3144 43.8627 36.2512C43.9261 36.2237 43.9895 36.1935 44.0585 36.1605L44.8472 35.7867V54.8123L44.4804 54.9415C44.3205 54.9992 44.1633 55.0652 44.0116 55.1311C43.6338 55.2933 43.2395 55.4582 42.8038 55.4939C40.1261 55.7137 38.0027 54.554 36.6652 52.1411C35.3388 49.7529 35.4629 47.3428 37.0237 45.1717L37.1175 45.0453C37.2223 44.9052 37.3188 44.7733 37.3767 44.6496C37.5504 44.2758 37.4456 43.8389 37.123 43.5888C36.8141 43.3497 36.3867 43.347 36.0806 43.5778C35.8958 43.718 35.7138 43.9131 35.5429 44.1549C34.0096 46.3067 33.6097 48.6949 34.3543 51.2535C35.7359 56.0105 40.3577 58.0167 43.8434 57.151C43.984 57.1153 44.1109 57.1236 44.1964 57.1291C44.2129 57.1291 44.2322 57.1318 44.2488 57.1318H44.6927L44.7865 57.566C44.792 57.5962 44.8003 57.621 44.8058 57.643C44.8251 57.7199 44.8527 57.8161 44.8527 57.9343L44.8361 62.2764C44.8251 65.3983 44.8141 68.5202 44.8058 71.6449C44.8058 72.2468 44.5107 72.6178 43.9068 72.7799C41.7062 73.3625 39.4311 72.266 38.4963 70.1719C37.8345 68.6906 37.8345 67.0774 38.4935 65.3791C38.5239 65.2994 38.557 65.2197 38.5901 65.1372C38.6728 64.9339 38.7528 64.7442 38.7914 64.5656C38.8713 64.1919 38.6811 63.8126 38.3308 63.6422C37.9696 63.4691 37.5587 63.5488 37.3078 63.8428C37.1919 63.9775 37.0816 64.1616 36.9713 64.4035C36.2764 65.926 36.053 67.4897 36.3067 69.0506C36.9024 72.7139 40.0075 75.1268 43.5263 74.6652C43.6917 74.6432 43.8434 74.6487 44.0061 74.6542C44.075 74.6569 44.1495 74.6597 44.2295 74.6597H44.781V75.5033C44.781 75.6957 44.781 75.8743 44.781 76.053L44.7755 77.2677C44.77 78.3367 44.7644 79.403 44.7672 80.472C44.7672 80.8211 44.792 81.0739 44.8444 81.291C44.9299 81.6345 45.2002 81.8626 45.5697 81.8928C45.9833 81.9286 46.306 81.7527 46.4328 81.4229C46.5156 81.2086 46.5569 80.9337 46.5624 80.6095C46.5735 79.381 46.5762 78.1498 46.5762 76.9214C46.5762 76.2838 46.579 75.649 46.579 75.0114C46.579 74.8273 46.59 74.6432 46.6038 74.437C46.6093 74.3409 46.6148 74.2392 46.6204 74.132L46.6479 73.6099H47.1719C47.387 73.6099 47.5966 73.6044 47.7979 73.5989C47.9992 73.5824 48.1977 73.5769 48.3963 73.5769ZM36.6735 36.4738C34.7486 36.4738 32.8431 35.9956 31.1775 35.0145C31.0231 34.9238 30.8714 34.8221 30.6921 34.7012C30.6039 34.6407 30.5074 34.5775 30.3971 34.5061L29.5256 33.9372L30.8024 33.4096C30.9789 33.3354 31.1251 33.2749 31.2685 33.2172C32.5784 32.695 33.5187 32.1014 34.2274 31.3512C34.5335 31.0241 34.7652 30.7108 34.9169 30.414C35.0906 30.0733 34.972 29.6473 34.6356 29.4C34.3157 29.1664 33.8552 29.1884 33.538 29.4549C33.5242 29.4687 33.4774 29.5071 33.4636 29.5209C32.0792 31.3319 30.0689 31.8678 28.2847 32.1509C26.7046 32.4037 25.2761 32.4257 23.9221 32.2251C22.011 31.942 20.5247 31.4666 19.2506 30.7301C18.7873 30.4635 18.2413 30.1035 17.6981 29.4522L17.0059 28.6277L18.4757 28.5233C18.6936 28.5096 18.8756 28.4958 19.0576 28.4793C21.1534 28.2842 22.8825 27.6659 24.3385 26.5858C24.5095 26.4594 24.7025 26.3083 24.8432 26.1379C25.1272 25.7971 25.1272 25.3464 24.8432 25.0166C24.5646 24.6923 24.162 24.6181 23.7649 24.816C23.6822 24.8572 23.6077 24.904 23.5471 24.9507C21.9283 26.2258 19.9759 26.8139 17.5712 26.7425C15.4009 26.6793 13.4292 26.0664 11.7084 24.9204C10.7377 24.2719 10.007 23.5381 9.47474 22.6752C9.37547 22.5158 9.29825 22.3509 9.22931 22.208C9.20173 22.153 9.17692 22.0981 9.14934 22.0486L8.74121 21.2489H9.6402C9.93527 21.2489 10.2248 21.2516 10.5089 21.2544C11.1155 21.2599 11.6864 21.2681 12.2545 21.2434C13.9284 21.1719 15.4919 20.7515 16.8983 19.9957C17.0555 19.9133 17.2817 19.7814 17.4444 19.6275C17.7256 19.3581 17.7863 18.9432 17.5933 18.5996C17.4002 18.2534 17.0169 18.0885 16.6391 18.1874C16.4351 18.2396 16.2227 18.3468 15.9994 18.4622L15.9359 18.4925C12.362 20.2925 7.4975 19.5752 4.62127 16.8216C4.43927 16.6457 4.27656 16.4588 4.12214 16.2802C4.05595 16.2032 3.98977 16.1263 3.92083 16.0493L3.68367 15.7855L4.03941 14.9885L33.8745 14.733L33.9434 15.2056C34.8507 21.3726 38.2812 24.8133 44.428 25.7229L44.8527 25.7861L44.8968 26.2093C44.9023 26.2533 44.9078 26.2945 44.9134 26.3358C44.9272 26.4457 44.9437 26.5693 44.9437 26.704C44.9409 27.5752 44.9382 28.4464 44.9327 29.3148C44.9272 30.3371 44.9244 31.3567 44.9216 32.379C44.9216 32.717 44.8637 33.2144 44.3701 33.6349C42.186 35.5064 39.4091 36.4738 36.6735 36.4738ZM31.8862 34.1543C35.5042 36.1935 40.3219 35.6466 43.6641 32.8022C43.7745 32.7088 43.8296 32.6208 43.8296 32.379C43.8324 31.3567 43.8379 30.3343 43.8406 29.312C43.8434 28.4546 43.8489 27.5999 43.8517 26.7425C37.669 25.6899 34.0013 22.0239 32.9396 15.8377L5.44305 16.0713C7.96355 18.4402 12.3427 19.0723 15.4478 17.5086L15.5085 17.4784C15.7622 17.3492 16.0517 17.2036 16.3661 17.1211C17.2238 16.8958 18.1283 17.2833 18.564 18.061C19.0052 18.8497 18.8673 19.7978 18.2165 20.4189C18.0152 20.6113 17.7725 20.7789 17.4306 20.9631C15.878 21.7985 14.1545 22.2602 12.3124 22.3399C11.7415 22.3646 11.179 22.3591 10.5888 22.3536C11.019 22.972 11.5899 23.5161 12.3289 24.0053C13.8732 25.0359 15.6519 25.5855 17.6126 25.6432C19.7442 25.7064 21.465 25.198 22.8714 24.0877C22.99 23.9943 23.1279 23.9091 23.2796 23.8322C24.1344 23.4062 25.0803 23.5903 25.6898 24.3021C26.324 25.0386 26.3268 26.0829 25.7008 26.8387C25.4829 27.1025 25.2127 27.3141 25.0031 27.4708C23.4423 28.625 21.6195 29.3065 19.4381 29.5484C19.5567 29.6281 19.6808 29.705 19.8104 29.7792C20.9604 30.4415 22.3199 30.873 24.0903 31.1368C25.3313 31.3209 26.6494 31.299 28.1165 31.0654C29.7628 30.8043 31.445 30.3536 32.5894 28.8558C32.6694 28.7514 32.7549 28.6772 32.8321 28.614C33.5353 28.0259 34.5694 27.9847 35.2947 28.5178C36.0668 29.0867 36.3233 30.0953 35.9041 30.917C35.7028 31.31 35.4188 31.7002 35.0354 32.1069C34.2495 32.9341 33.2457 33.5882 31.8862 34.1543ZM55.4118 36.4683C55.4062 36.4683 55.4007 36.4683 55.3924 36.4683C52.6017 36.4628 50.0702 35.5806 47.8641 33.841C47.0892 33.2282 46.7031 32.4202 46.7169 31.4364C46.7334 30.3398 46.7334 29.2213 46.7362 28.1413C46.7362 27.6934 46.7362 27.2454 46.7389 26.8002V26.3467V25.6927L47.1664 25.5937C52.9243 24.2801 56.4018 20.8641 57.7971 15.1562L57.9019 14.733L88.9476 14.9968L88.1947 15.8899C88.0982 16.0026 88.0183 16.1016 87.9493 16.1895C87.8059 16.3626 87.6956 16.5028 87.5605 16.6374C86.0052 18.1847 84.0445 19.1108 81.7308 19.3911C79.4778 19.6632 77.5199 19.3169 75.7384 18.3358C75.5674 18.2424 75.3386 18.1764 75.129 18.1627C74.8146 18.1462 74.4864 18.3715 74.3513 18.7068C74.2079 19.0668 74.2989 19.4461 74.5885 19.6687C74.8532 19.872 75.1814 20.0617 75.6254 20.265C77.4868 21.117 79.4971 21.422 81.7667 21.2022C81.8521 21.1939 81.9404 21.1829 82.0479 21.1664L83.1234 21.0318L82.8587 21.8507C82.8394 21.9139 82.8228 21.9744 82.8063 22.0266C82.7677 22.1668 82.7291 22.3097 82.6463 22.4553C82.0314 23.5519 81.1048 24.4642 79.8942 25.1678C77.2662 26.6958 74.4451 27.1272 71.5109 26.4429C70.4575 26.1983 69.4703 25.7339 68.5851 25.0633C67.9729 24.6017 67.482 24.5934 67.1263 25.0441C66.9718 25.2392 66.9057 25.4426 66.9305 25.646C66.9663 25.9263 67.1759 26.2286 67.5234 26.4952C69.0015 27.6301 70.7636 28.2787 72.9118 28.4821C73.0993 28.4986 73.2896 28.5151 73.4771 28.5288L74.1142 28.5783L74.412 29.4137L74.1307 29.6583C74.0562 29.7243 73.9818 29.793 73.9073 29.8589C73.7308 30.0211 73.5488 30.1887 73.3393 30.3398C72.3024 31.0846 71.078 31.6013 69.4896 31.964C66.9718 32.5384 64.4706 32.4752 62.0549 31.7744C60.5079 31.3264 59.4021 30.6312 58.5748 29.5868C58.2604 29.1911 57.7502 29.1114 57.3587 29.4027C56.9395 29.7133 56.8843 30.1942 57.2153 30.6916C57.7144 31.4419 58.4066 32.0465 59.3249 32.5411C59.7661 32.7802 60.2321 32.9891 60.723 33.2144C60.9546 33.3189 61.1918 33.4288 61.4345 33.5415L62.1956 33.8987L61.5613 34.4511C61.5227 34.4841 61.4869 34.5198 61.4483 34.5555C61.3462 34.6517 61.2332 34.7589 61.0898 34.8496C59.4021 35.9241 57.491 36.4683 55.4118 36.4683ZM47.842 26.5611V26.8029C47.842 27.2509 47.8392 27.6961 47.8392 28.1413C47.8392 29.2268 47.8392 30.3481 47.8199 31.4529C47.8089 32.1042 48.035 32.5741 48.548 32.9781C50.5528 34.5583 52.8554 35.3635 55.3924 35.369C55.398 35.369 55.4035 35.369 55.409 35.369C57.1215 35.369 58.7044 34.9595 60.1218 34.1461C59.6641 33.9372 59.2283 33.7366 58.8009 33.5057C57.7337 32.9314 56.8926 32.1866 56.297 31.2962C55.6462 30.3206 55.8116 29.1774 56.6996 28.5178C57.5738 27.8692 58.7513 28.0341 59.4407 28.9025C60.1191 29.7572 61.0456 30.3343 62.3638 30.7163C64.5975 31.3622 66.9112 31.4226 69.2414 30.8895C70.6064 30.5762 71.6626 30.1502 72.5478 29.5484C70.3031 29.2983 68.4362 28.581 66.8505 27.3636C66.2576 26.9101 65.9074 26.3605 65.8357 25.7779C65.775 25.2805 65.9212 24.7885 66.2604 24.3598C67.0049 23.4199 68.1494 23.354 69.2497 24.1839C70.0135 24.7611 70.8574 25.1595 71.7619 25.3684C74.412 25.984 76.9601 25.5965 79.3372 24.2142C80.2306 23.6948 80.9173 23.0737 81.4275 22.3262C79.1358 22.4883 77.0842 22.1365 75.1621 21.2571C74.6381 21.018 74.241 20.7872 73.9073 20.5289C73.2317 20.0067 72.9973 19.1081 73.3227 18.2918C73.6343 17.5141 74.4037 17.0112 75.1952 17.0579C75.5702 17.0827 75.9508 17.1926 76.2679 17.3657C77.837 18.2314 79.5798 18.5337 81.5929 18.2918C83.5453 18.0555 85.211 17.308 86.5484 16.0686L58.7595 15.8322C57.2428 21.5182 53.5724 25.1238 47.842 26.5611ZM45.7351 13.0373C44.4335 13.0373 43.1953 12.5317 42.2412 11.6083C41.2567 10.6547 40.7052 9.38502 40.6859 8.03291C40.6666 6.61211 41.2209 5.28749 42.2412 4.30639C43.2091 3.37476 44.4942 2.87459 45.7682 2.92955C47.1057 2.92131 48.3632 3.40774 49.3118 4.32563C50.2825 5.2655 50.8258 6.54615 50.8396 7.93398C50.8671 10.7014 48.6169 12.9906 45.8206 13.0373C45.7931 13.0373 45.7627 13.0373 45.7351 13.0373ZM45.5724 4.02333C44.6486 4.02333 43.7221 4.40807 43.0078 5.09512C42.2081 5.8646 41.7752 6.90067 41.7917 8.01642C41.8055 9.07722 42.2384 10.0721 43.0106 10.8196C43.7745 11.5588 44.7727 11.9656 45.8041 11.9353C47.9964 11.8996 49.7586 10.1078 49.7365 7.94222C49.7255 6.8512 49.3008 5.84812 48.5424 5.1116C47.8034 4.39433 46.8134 4.00134 45.771 4.02882H45.7517H45.7324C45.68 4.02608 45.6248 4.02333 45.5724 4.02333Z" fill="#29DFED"/>
<path d="M67.3979 30.874C68.8731 31.5438 70.0106 32.4907 70.8104 33.7206C71.6072 34.9505 72.0056 36.4056 72.0056 38.0859C72.0056 39.7459 71.6072 41.1952 70.8104 42.4338C70.0135 43.6723 68.876 44.6222 67.3979 45.2804C65.9197 45.9387 64.1817 46.2678 62.1752 46.2678H57.6165V52.5096H52.3794V29.8751H62.1781C64.1817 29.8693 65.9226 30.2042 67.3979 30.874ZM65.4751 40.9787C66.295 40.3002 66.705 39.336 66.705 38.0859C66.705 36.8156 66.295 35.8397 65.4751 35.1584C64.6552 34.4799 63.4599 34.1393 61.8865 34.1393H57.6194V41.9978H61.8865C63.457 41.9949 64.6552 41.6571 65.4751 40.9787Z" fill="#2B2D34"/>
<path d="M85.8608 35.4963C86.8857 35.0661 88.0636 34.8496 89.4003 34.8496V39.5064C88.8402 39.4631 88.462 39.4429 88.2686 39.4429C86.8251 39.4429 85.6933 39.8471 84.8734 40.6555C84.0535 41.4639 83.6435 42.6764 83.6435 44.2932V52.5068H78.6027V35.1094H83.4212V37.4047C84.0246 36.5645 84.8388 35.9294 85.8608 35.4963Z" fill="#2B2D34"/>
<path d="M95.9017 31.8759C95.3186 31.336 95.0298 30.6691 95.0298 29.8723C95.0298 29.0755 95.3214 28.4057 95.9017 27.8687C96.4849 27.3288 97.2384 27.0603 98.1652 27.0603C99.0919 27.0603 99.8455 27.3201 100.429 27.8369C101.012 28.3537 101.301 29.0004 101.301 29.777C101.301 30.6172 101.009 31.3129 100.429 31.8615C99.8455 32.41 99.0919 32.6872 98.1652 32.6872C97.2384 32.6843 96.4849 32.4158 95.9017 31.8759ZM95.6419 35.1094H100.686V52.5068H95.6419V35.1094Z" fill="#2B2D34"/>
<path d="M136.079 36.7753C137.36 38.0572 138.001 39.9828 138.001 42.5466V52.5069H132.958V43.3232C132.958 41.9432 132.672 40.9154 132.1 40.234C131.529 39.5556 130.714 39.2149 129.658 39.2149C128.471 39.2149 127.533 39.5989 126.846 40.3639C126.156 41.129 125.812 42.2665 125.812 43.7764V52.5069H120.769V43.3232C120.769 40.5862 119.669 39.2178 117.472 39.2178C116.308 39.2178 115.381 39.6018 114.691 40.3668C114.001 41.1319 113.658 42.2694 113.658 43.7793V52.5098H108.614V35.1124H113.433V37.116C114.079 36.3827 114.87 35.8226 115.809 35.4357C116.747 35.0489 117.775 34.8525 118.898 34.8525C120.128 34.8525 121.236 35.0951 122.229 35.5801C123.22 36.0651 124.019 36.7724 124.623 37.6992C125.333 36.7927 126.234 36.094 127.322 35.5974C128.411 35.1008 129.603 34.8525 130.896 34.8525C133.065 34.8497 134.797 35.4906 136.079 36.7753Z" fill="#2B2D34"/>
<path d="M162.899 45.2285H149.74C149.977 46.3083 150.537 47.1571 151.42 47.7836C152.304 48.4101 153.404 48.7219 154.717 48.7219C155.624 48.7219 156.426 48.5862 157.125 48.3177C157.827 48.0492 158.479 47.6219 159.082 47.0416L161.767 49.9518C160.128 51.8283 157.737 52.7637 154.59 52.7637C152.63 52.7637 150.892 52.3798 149.385 51.6147C147.875 50.8496 146.711 49.7872 145.892 48.4303C145.072 47.0734 144.662 45.5317 144.662 43.8052C144.662 42.1019 145.066 40.5659 145.874 39.1975C146.683 37.829 147.791 36.7608 149.206 35.9957C150.618 35.2307 152.197 34.8467 153.944 34.8467C155.647 34.8467 157.189 35.2133 158.569 35.9466C159.949 36.68 161.031 37.7308 161.819 39.0993C162.605 40.4678 163 42.0585 163 43.8687C162.997 43.9351 162.966 44.3884 162.899 45.2285ZM151.097 39.6363C150.32 40.283 149.847 41.1664 149.674 42.2866H158.242C158.069 41.1867 157.596 40.309 156.819 39.6507C156.042 38.9925 155.095 38.6634 153.972 38.6634C152.832 38.6663 151.874 38.9896 151.097 39.6363Z" fill="#2B2D34"/>
<path d="M57.5489 63.9031V69.6371H56.484V67.1796H53.5187V69.6371H52.4538V63.9031H53.5187V66.2704H56.484V63.9031H57.5489Z" fill="#2B2D34"/>
<path d="M63.0858 67.7778H59.6536C59.7136 68.1 59.8693 68.3566 60.1259 68.545C60.3799 68.7334 60.6939 68.8263 61.0707 68.8263C61.5513 68.8263 61.9472 68.6679 62.2584 68.3512L62.8073 68.9819C62.6107 69.2167 62.3622 69.3942 62.0619 69.5144C61.7615 69.6345 61.4229 69.6946 61.0461 69.6946C60.5656 69.6946 60.1423 69.599 59.7764 69.4079C59.4106 69.2167 59.1266 68.9519 58.93 68.6078C58.7307 68.2665 58.6324 67.8815 58.6324 67.4501C58.6324 67.0242 58.728 66.6419 58.9218 66.2979C59.1157 65.9566 59.3833 65.6917 59.73 65.5006C60.0741 65.3094 60.4618 65.2139 60.8932 65.2139C61.3192 65.2139 61.7014 65.3067 62.0373 65.4978C62.3731 65.6862 62.6352 65.9511 62.8237 66.2924C63.0121 66.6337 63.1076 67.0296 63.1076 67.4747C63.1022 67.5457 63.0967 67.6467 63.0858 67.7778ZM60.0577 66.3252C59.8311 66.519 59.6945 66.7757 59.6427 67.0979H62.1247C62.081 66.7812 61.9472 66.5245 61.7233 66.3279C61.4994 66.1313 61.2209 66.033 60.8878 66.033C60.5628 66.033 60.2843 66.1313 60.0577 66.3252Z" fill="#2B2D34"/>
<path d="M67.1111 65.678C67.4524 65.9866 67.6244 66.4508 67.6244 67.0733V69.6372H66.6578V69.1048C66.5322 69.2959 66.352 69.4434 66.1226 69.5417C65.8905 69.6427 65.6093 69.6946 65.2816 69.6946C64.954 69.6946 64.6673 69.6372 64.4215 69.5253C64.1758 69.4133 63.9847 69.2577 63.8536 69.0584C63.7198 68.859 63.6516 68.6351 63.6516 68.3839C63.6516 67.9908 63.799 67.674 64.0884 67.4365C64.3806 67.1989 64.8393 67.0815 65.47 67.0815H66.6005V67.016C66.6005 66.7102 66.5076 66.4753 66.3274 66.3115C66.1445 66.1477 65.8714 66.0658 65.511 66.0658C65.2653 66.0658 65.025 66.104 64.7874 66.1805C64.5499 66.2569 64.3505 66.3634 64.184 66.4999L63.7826 65.7545C64.012 65.5797 64.2878 65.446 64.6099 65.3531C64.9321 65.2603 65.2735 65.2139 65.6339 65.2139C66.2783 65.2139 66.7697 65.3695 67.1111 65.678ZM66.1772 68.7744C66.3766 68.657 66.5158 68.4904 66.5977 68.272V67.7641H65.541C64.9513 67.7641 64.6564 67.958 64.6564 68.3457C64.6564 68.5314 64.7301 68.6788 64.8775 68.788C65.025 68.8973 65.2298 68.9519 65.4919 68.9519C65.7513 68.9491 65.9779 68.8918 66.1772 68.7744Z" fill="#2B2D34"/>
<path d="M68.9347 63.5618H69.9586V69.6398H68.9347V63.5618Z" fill="#2B2D34"/>
<path d="M74.1446 69.3996C74.0245 69.4979 73.8798 69.5717 73.7078 69.6208C73.5357 69.6699 73.3555 69.6945 73.1644 69.6945C72.6838 69.6945 72.3125 69.5689 72.0504 69.3177C71.7882 69.0665 71.6572 68.7006 71.6572 68.2201V66.1149H70.9363V65.2957H71.6572V64.2964H72.6811V65.2957H73.8525V66.1149H72.6811V68.1955C72.6811 68.4085 72.733 68.5723 72.8367 68.6843C72.9405 68.7962 73.0907 68.8535 73.2873 68.8535C73.5166 68.8535 73.7078 68.7935 73.8607 68.6733L74.1446 69.3996Z" fill="#2B2D34"/>
<path d="M78.7977 65.6971C79.1308 66.0193 79.2973 66.4971 79.2973 67.1306V69.6371H78.2734V67.2616C78.2734 66.8794 78.1833 66.5899 78.0031 66.3961C77.8229 66.2022 77.5662 66.1039 77.2331 66.1039C76.8563 66.1039 76.5587 66.2186 76.3402 66.4452C76.1218 66.6719 76.0126 66.9995 76.0126 67.4227V69.6344H74.9886V63.5564H76.0126V65.7681C76.1819 65.5879 76.3894 65.4486 76.6379 65.3558C76.8863 65.2602 77.1621 65.2111 77.4679 65.2111C78.0222 65.2138 78.4645 65.3749 78.7977 65.6971Z" fill="#2B2D34"/>
<path d="M81.4242 69.4079C81.0638 69.2167 80.7825 68.9519 80.5805 68.6078C80.3784 68.2665 80.2774 67.8815 80.2774 67.4501C80.2774 67.0187 80.3784 66.6337 80.5805 66.2951C80.7825 65.9566 81.061 65.6917 81.4215 65.5006C81.7792 65.3094 82.186 65.2139 82.6447 65.2139C83.0761 65.2139 83.4529 65.3012 83.7779 65.476C84.1028 65.6507 84.3458 65.9019 84.5124 66.2296L83.726 66.6883C83.6004 66.4863 83.442 66.3361 83.2536 66.2323C83.0652 66.1286 82.8577 66.0794 82.6338 66.0794C82.2515 66.0794 81.9348 66.205 81.6836 66.4535C81.4324 66.702 81.3068 67.0351 81.3068 67.4501C81.3068 67.8652 81.4297 68.1955 81.6809 68.444C81.9293 68.6925 82.2461 68.8181 82.6338 68.8181C82.8577 68.8181 83.0652 68.7689 83.2536 68.6652C83.442 68.5642 83.5977 68.414 83.726 68.2092L84.5124 68.6679C84.3431 68.9956 84.0946 69.2495 83.7724 69.4242C83.4475 69.6017 83.0734 69.6918 82.6447 69.6918C82.1915 69.6946 81.7874 69.6017 81.4242 69.4079Z" fill="#2B2D34"/>
<path d="M88.5478 65.678C88.8891 65.9866 89.0612 66.4508 89.0612 67.0733V69.6372H88.0946V69.1048C87.969 69.2959 87.7888 69.4434 87.5594 69.5417C87.3273 69.6427 87.0461 69.6946 86.7184 69.6946C86.3908 69.6946 86.1041 69.6372 85.8583 69.5253C85.6126 69.4133 85.4214 69.2577 85.2904 69.0584C85.1566 68.859 85.0883 68.6351 85.0883 68.3839C85.0883 67.9908 85.2358 67.674 85.5252 67.4365C85.8174 67.1989 86.2761 67.0815 86.9068 67.0815H88.0372V67.016C88.0372 66.7102 87.9444 66.4753 87.7642 66.3115C87.5812 66.1477 87.3082 66.0658 86.9478 66.0658C86.702 66.0658 86.4617 66.104 86.2242 66.1805C85.9866 66.2569 85.7873 66.3634 85.6208 66.4999L85.2194 65.7545C85.4487 65.5797 85.7245 65.446 86.0467 65.3531C86.3689 65.2603 86.7102 65.2139 87.0706 65.2139C87.7123 65.2139 88.2065 65.3695 88.5478 65.678ZM87.614 68.7744C87.8133 68.657 87.9526 68.4904 88.0345 68.272V67.7641H86.9778C86.388 67.7641 86.0931 67.958 86.0931 68.3457C86.0931 68.5314 86.1669 68.6788 86.3143 68.788C86.4617 68.8973 86.6665 68.9519 86.9287 68.9519C87.1853 68.9491 87.4147 68.8918 87.614 68.7744Z" fill="#2B2D34"/>
<path d="M92.9 65.2139V66.1886C92.8127 66.1723 92.7335 66.1641 92.6625 66.1641C92.2638 66.1641 91.9526 66.2815 91.7287 66.5136C91.5048 66.7457 91.3928 67.0815 91.3928 67.5157V69.6372H90.3689V65.263H91.3437V65.9019C91.6386 65.4432 92.1574 65.2139 92.9 65.2139Z" fill="#2B2D34"/>
<path d="M97.8233 67.7778H94.3911C94.4511 68.1 94.6068 68.3566 94.8634 68.545C95.1174 68.7334 95.4314 68.8263 95.8082 68.8263C96.2887 68.8263 96.6847 68.6679 96.9959 68.3512L97.5448 68.9819C97.3482 69.2167 97.0997 69.3942 96.7993 69.5144C96.499 69.6345 96.1604 69.6946 95.7836 69.6946C95.303 69.6946 94.8798 69.599 94.5139 69.4079C94.1481 69.2167 93.8641 68.9519 93.6675 68.6078C93.4682 68.2665 93.3699 67.8815 93.3699 67.4501C93.3699 67.0242 93.4654 66.6419 93.6593 66.2979C93.8532 65.9566 94.1207 65.6917 94.4675 65.5006C94.8116 65.3094 95.1993 65.2139 95.6307 65.2139C96.0567 65.2139 96.4389 65.3067 96.7748 65.4978C97.1106 65.6862 97.3727 65.9511 97.5611 66.2924C97.7495 66.6337 97.8451 67.0296 97.8451 67.4747C97.8396 67.5457 97.8342 67.6467 97.8233 67.7778ZM94.7979 66.3252C94.5713 66.519 94.4348 66.7757 94.3829 67.0979H96.8649C96.8212 66.7812 96.6874 66.5245 96.4635 66.3279C96.2396 66.1313 95.9611 66.033 95.628 66.033C95.3003 66.033 95.0245 66.1313 94.7979 66.3252Z" fill="#2B2D34"/>
<path d="M104.901 68.3101H102.034L101.468 69.6371H100.371L102.951 63.9031H104L106.588 69.6371H105.474L104.901 68.3101ZM104.548 67.4745L103.467 64.968L102.394 67.4745H104.548Z" fill="#2B2D34"/>
<path d="M111.519 65.263V68.9737C111.519 70.5137 110.732 71.2837 109.16 71.2837C108.739 71.2837 108.341 71.2318 107.964 71.1253C107.587 71.0188 107.276 70.8632 107.03 70.6638L107.489 69.8938C107.68 70.0522 107.92 70.1778 108.212 70.2761C108.504 70.3717 108.799 70.4181 109.1 70.4181C109.58 70.4181 109.932 70.3089 110.156 70.0904C110.38 69.872 110.492 69.5389 110.492 69.0911V68.8617C110.317 69.0529 110.104 69.1976 109.853 69.2959C109.602 69.3942 109.326 69.4433 109.026 69.4433C108.611 69.4433 108.234 69.3559 107.898 69.1785C107.562 69.001 107.298 68.7525 107.104 68.4276C106.91 68.1054 106.814 67.7368 106.814 67.3217C106.814 66.9067 106.91 66.5381 107.104 66.2186C107.298 65.8992 107.562 65.6534 107.898 65.4787C108.234 65.3039 108.608 65.2166 109.026 65.2166C109.343 65.2166 109.629 65.2684 109.889 65.3722C110.148 65.4759 110.367 65.6343 110.541 65.8473V65.2657H111.519V65.263ZM110.14 68.2255C110.388 67.9934 110.511 67.6904 110.511 67.319C110.511 66.9531 110.386 66.6555 110.14 66.4262C109.892 66.1968 109.572 66.0821 109.184 66.0821C108.791 66.0821 108.469 66.1968 108.223 66.4262C107.975 66.6555 107.849 66.9531 107.849 67.319C107.849 67.6904 107.972 67.9907 108.223 68.2255C108.472 68.4576 108.791 68.5723 109.184 68.5723C109.572 68.5723 109.892 68.4576 110.14 68.2255Z" fill="#2B2D34"/>
<path d="M116.958 67.7778H113.526C113.586 68.1 113.742 68.3566 113.998 68.545C114.252 68.7334 114.566 68.8263 114.943 68.8263C115.424 68.8263 115.819 68.6679 116.131 68.3512L116.68 68.9819C116.483 69.2167 116.234 69.3942 115.934 69.5144C115.634 69.6345 115.295 69.6946 114.918 69.6946C114.438 69.6946 114.015 69.599 113.649 69.4079C113.283 69.2167 112.999 68.9519 112.802 68.6078C112.603 68.2665 112.505 67.8815 112.505 67.4501C112.505 67.0242 112.6 66.6419 112.794 66.2979C112.988 65.9566 113.256 65.6917 113.602 65.5006C113.946 65.3094 114.334 65.2139 114.765 65.2139C115.191 65.2139 115.574 65.3067 115.91 65.4978C116.245 65.6862 116.508 65.9511 116.696 66.2924C116.884 66.6337 116.98 67.0296 116.98 67.4747C116.974 67.5457 116.969 67.6467 116.958 67.7778ZM113.933 66.3252C113.706 66.519 113.57 66.7757 113.518 67.0979H116C115.956 66.7812 115.822 66.5245 115.598 66.3279C115.374 66.1313 115.096 66.033 114.763 66.033C114.435 66.033 114.159 66.1313 113.933 66.3252Z" fill="#2B2D34"/>
<path d="M121.766 65.697C122.1 66.0192 122.266 66.497 122.266 67.1305V69.637H121.242V67.2615C121.242 66.8793 121.152 66.5898 120.972 66.396C120.792 66.2021 120.535 66.1038 120.202 66.1038C119.825 66.1038 119.527 66.2185 119.309 66.4451C119.091 66.6717 118.981 66.9994 118.981 67.4226V69.6343H117.957V65.2601H118.932V65.8253C119.102 65.6232 119.315 65.4703 119.571 65.3666C119.828 65.2628 120.117 65.2109 120.439 65.2109C120.991 65.2137 121.433 65.3748 121.766 65.697Z" fill="#2B2D34"/>
<path d="M124.396 69.4079C124.036 69.2167 123.754 68.9519 123.552 68.6078C123.35 68.2665 123.249 67.8815 123.249 67.4501C123.249 67.0187 123.35 66.6337 123.552 66.2951C123.754 65.9566 124.033 65.6917 124.393 65.5006C124.751 65.3094 125.158 65.2139 125.617 65.2139C126.048 65.2139 126.425 65.3012 126.75 65.476C127.075 65.6507 127.318 65.9019 127.484 66.2296L126.698 66.6883C126.572 66.4863 126.414 66.3361 126.225 66.2323C126.037 66.1286 125.83 66.0794 125.606 66.0794C125.223 66.0794 124.907 66.205 124.655 66.4535C124.404 66.702 124.279 67.0351 124.279 67.4501C124.279 67.8652 124.401 68.1955 124.653 68.444C124.901 68.6925 125.218 68.8181 125.606 68.8181C125.83 68.8181 126.037 68.7689 126.225 68.6652C126.414 68.5642 126.569 68.414 126.698 68.2092L127.484 68.6679C127.315 68.9956 127.066 69.2495 126.744 69.4242C126.419 69.6017 126.045 69.6918 125.617 69.6918C125.163 69.6946 124.756 69.6017 124.396 69.4079Z" fill="#2B2D34"/>
<path d="M132.407 65.263L130.359 69.9894C130.168 70.4645 129.936 70.7976 129.663 70.9915C129.39 71.1854 129.06 71.2809 128.672 71.2809C128.454 71.2809 128.238 71.2454 128.025 71.1744C127.812 71.1035 127.637 71.0052 127.501 70.8796L127.91 70.126C128.008 70.2188 128.123 70.2925 128.257 70.3471C128.391 70.4017 128.525 70.429 128.661 70.429C128.841 70.429 128.989 70.3826 129.106 70.2898C129.224 70.1969 129.333 70.0413 129.431 69.8229L129.505 69.6508L127.596 65.2603H128.661L130.037 68.4959L131.422 65.2603H132.407V65.263Z" fill="#2B2D34"/>
<path d="M133.587 68.5231C133.713 68.6487 133.775 68.8125 133.775 69.0146C133.775 69.102 133.764 69.1948 133.737 69.2876C133.713 69.3832 133.663 69.5279 133.587 69.7191L133.169 70.874H132.506L132.833 69.6208C132.713 69.5716 132.618 69.4952 132.549 69.3887C132.481 69.2822 132.446 69.1593 132.446 69.0146C132.446 68.8125 132.508 68.6487 132.634 68.5231C132.76 68.3975 132.918 68.3347 133.109 68.3347C133.303 68.3347 133.461 68.3975 133.587 68.5231Z" fill="#2B2D34"/>
<path d="M137.134 63.9031H138.199V68.736H141.197V69.6371H137.134V63.9031V63.9031Z" fill="#2B2D34"/>
<path d="M142.04 63.9031H143.105V68.736H146.103V69.6371H142.04V63.9031Z" fill="#2B2D34"/>
<path d="M147.927 69.3395C147.46 69.0856 147.095 68.7361 146.83 68.2883C146.565 67.8405 146.431 67.3354 146.431 66.7729C146.431 66.2104 146.565 65.7053 146.832 65.2575C147.1 64.8097 147.469 64.4574 147.936 64.2035C148.402 63.9496 148.924 63.824 149.503 63.824C149.972 63.824 150.401 63.9059 150.789 64.0697C151.177 64.2335 151.504 64.4711 151.772 64.7824L151.084 65.4295C150.669 64.9817 150.158 64.7578 149.552 64.7578C149.159 64.7578 148.807 64.8424 148.495 65.0145C148.184 65.1865 147.941 65.4268 147.766 65.7326C147.592 66.0384 147.504 66.3852 147.504 66.7729C147.504 67.1606 147.592 67.5074 147.766 67.8132C147.941 68.119 148.184 68.3593 148.495 68.5313C148.807 68.7033 149.159 68.7907 149.552 68.7907C150.158 68.7907 150.669 68.5641 151.084 68.1108L151.772 68.7661C151.504 69.0774 151.174 69.3149 150.786 69.4788C150.396 69.6426 149.964 69.7245 149.495 69.7245C148.916 69.7191 148.394 69.5935 147.927 69.3395Z" fill="#2B2D34"/>
</svg>
